<svg class="rich-terminal" viewBox="0 0 1360 879.5999999999999" xmlns="http://www.w3.org/2000/svg">
    <!-- Generated with Rich https://www.textualize.io -->
    <style>

    @font-face {
        font-family: "Fira Code";
        src: local("FiraCode-Regular"),
                url("https://cdnjs.cloudflare.com/ajax/libs/firacode/6.2.0/woff2/FiraCode-Regular.woff2") format("woff2"),
                url("https://cdnjs.cloudflare.com/ajax/libs/firacode/6.2.0/woff/FiraCode-Regular.woff") format("woff");
        font-style: normal;
        font-weight: 400;
    }
    @font-face {
        font-family: "Fira Code";
        src: local("FiraCode-Bold"),
                url("https://cdnjs.cloudflare.com/ajax/libs/firacode/6.2.0/woff2/FiraCode-Bold.woff2") format("woff2"),
                url("https://cdnjs.cloudflare.com/ajax/libs/firacode/6.2.0/woff/FiraCode-Bold.woff") format("woff");
        font-style: bold;
        font-weight: 700;
    }

    .terminal-1338545734-matrix {
        font-family: Fira Code, monospace;
        font-size: 20px;
        line-height: 24.4px;
        font-variant-east-asian: full-width;
    }

    .terminal-1338545734-title {
        font-size: 18px;
        font-weight: bold;
        font-family: arial;
    }

    .terminal-1338545734-r1 { fill: #c5c8c6 }
.terminal-1338545734-r2 { fill: #e0e0e0 }
.terminal-1338545734-r3 { fill: #a0a3a6 }
.terminal-1338545734-r4 { fill: #c5c6c7 }
.terminal-1338545734-r5 { fill: #ddedf9;font-weight: bold }
.terminal-1338545734-r6 { fill: #797979 }
.terminal-1338545734-r7 { fill: #4f4f4f }
.terminal-1338545734-r8 { fill: #0178d4 }
.terminal-1338545734-r9 { fill: #fea62b;font-weight: bold }
.terminal-1338545734-r10 { fill: #a0a0a0;font-style: italic; }
.terminal-1338545734-r11 { fill: #a0a0a0 }
.terminal-1338545734-r12 { fill: #121212 }
.terminal-1338545734-r13 { fill: #191919 }
.terminal-1338545734-r14 { fill: #7f7f7f }
.terminal-1338545734-r15 { fill: #737373 }
.terminal-1338545734-r16 { fill: #ffa62b;font-weight: bold }
.terminal-1338545734-r17 { fill: #495259 }
    </style>

    <defs>
    <clipPath id="terminal-1338545734-clip-terminal">
      <rect x="0" y="0" width="1341.0" height="828.5999999999999" />
    </clipPath>
    <clipPath id="terminal-1338545734-line-0">
    <rect x="0" y="1.5" width="1342" height="24.65"/>
            </clipPath>
<clipPath id="terminal-1338545734-line-1">
    <rect x="0" y="25.9" width="1342" height="24.65"/>
            </clipPath>
<clipPath id="terminal-1338545734-line-2">
    <rect x="0" y="50.3" width="1342" height="24.65"/>
            </clipPath>
<clipPath id="terminal-1338545734-line-3">
    <rect x="0" y="74.7" width="1342" height="24.65"/>
            </clipPath>
<clipPath id="terminal-1338545734-line-4">
    <rect x="0" y="99.1" width="1342" height="24.65"/>
            </clipPath>
<clipPath id="terminal-1338545734-line-5">
    <rect x="0" y="123.5" width="1342" height="24.65"/>
            </clipPath>
<clipPath id="terminal-1338545734-line-6">
    <rect x="0" y="147.9" width="1342" height="24.65"/>
            </clipPath>
<clipPath id="terminal-1338545734-line-7">
    <rect x="0" y="172.3" width="1342" height="24.65"/>
            </clipPath>
<clipPath id="terminal-1338545734-line-8">
    <rect x="0" y="196.7" width="1342" height="24.65"/>
            </clipPath>
<clipPath id="terminal-1338545734-line-9">
    <rect x="0" y="221.1" width="1342" height="24.65"/>
            </clipPath>
<clipPath id="terminal-1338545734-line-10">
    <rect x="0" y="245.5" width="1342" height="24.65"/>
            </clipPath>
<clipPath id="terminal-1338545734-line-11">
    <rect x="0" y="269.9" width="1342" height="24.65"/>
            </clipPath>
<clipPath id="terminal-1338545734-line-12">
    <rect x="0" y="294.3" width="1342" height="24.65"/>
            </clipPath>
<clipPath id="terminal-1338545734-line-13">
    <rect x="0" y="318.7" width="1342" height="24.65"/>
            </clipPath>
<clipPath id="terminal-1338545734-line-14">
    <rect x="0" y="343.1" width="1342" height="24.65"/>
            </clipPath>
<clipPath id="terminal-1338545734-line-15">
    <rect x="0" y="367.5" width="1342" height="24.65"/>
            </clipPath>
<clipPath id="terminal-1338545734-line-16">
    <rect x="0" y="391.9" width="1342" height="24.65"/>
            </clipPath>
<clipPath id="terminal-1338545734-line-17">
    <rect x="0" y="416.3" width="1342" height="24.65"/>
            </clipPath>
<clipPath id="terminal-1338545734-line-18">
    <rect x="0" y="440.7" width="1342" height="24.65"/>
            </clipPath>
<clipPath id="terminal-1338545734-line-19">
    <rect x="0" y="465.1" width="1342" height="24.65"/>
            </clipPath>
<clipPath id="terminal-1338545734-line-20">
    <rect x="0" y="489.5" width="1342" height="24.65"/>
            </clipPath>
<clipPath id="terminal-1338545734-line-21">
    <rect x="0" y="513.9" width="1342" height="24.65"/>
            </clipPath>
<clipPath id="terminal-1338545734-line-22">
    <rect x="0" y="538.3" width="1342" height="24.65"/>
            </clipPath>
<clipPath id="terminal-1338545734-line-23">
    <rect x="0" y="562.7" width="1342" height="24.65"/>
            </clipPath>
<clipPath id="terminal-1338545734-line-24">
    <rect x="0" y="587.1" width="1342" height="24.65"/>
            </clipPath>
<clipPath id="terminal-1338545734-line-25">
    <rect x="0" y="611.5" width="1342" height="24.65"/>
            </clipPath>
<clipPath id="terminal-1338545734-line-26">
    <rect x="0" y="635.9" width="1342" height="24.65"/>
            </clipPath>
<clipPath id="terminal-1338545734-line-27">
    <rect x="0" y="660.3" width="1342" height="24.65"/>
            </clipPath>
<clipPath id="terminal-1338545734-line-28">
    <rect x="0" y="684.7" width="1342" height="24.65"/>
            </clipPath>
<clipPath id="terminal-1338545734-line-29">
    <rect x="0" y="709.1" width="1342" height="24.65"/>
            </clipPath>
<clipPath id="terminal-1338545734-line-30">
    <rect x="0" y="733.5" width="1342" height="24.65"/>
            </clipPath>
<clipPath id="terminal-1338545734-line-31">
    <rect x="0" y="757.9" width="1342" height="24.65"/>
            </clipPath>
<clipPath id="terminal-1338545734-line-32">
    <rect x="0" y="782.3" width="1342" height="24.65"/>
            </clipPath>
    </defs>

    <rect fill="#292929" stroke="rgba(255,255,255,0.35)" stroke-width="1" x="1" y="1" width="1358" height="877.6" rx="8"/><text class="terminal-1338545734-title" fill="#c5c8c6" text-anchor="middle" x="679" y="27">IRCTC&#160;Tatkal&#160;TUI</text>
            <g transform="translate(26,22)">
            <circle cx="0" cy="0" r="7" fill="#ff5f57"/>
            <circle cx="22" cy="0" r="7" fill="#febc2e"/>
            <circle cx="44" cy="0" r="7" fill="#28c840"/>
            </g>
        
    <g transform="translate(9, 41)" clip-path="url(#terminal-1338545734-clip-terminal)">
    <rect fill="#242f38" x="0" y="1.5" width="12.2" height="24.65" shape-rendering="crispEdges"/><rect fill="#242f38" x="12.2" y="1.5" width="12.2" height="24.65" shape-rendering="crispEdges"/><rect fill="#242f38" x="24.4" y="1.5" width="61" height="24.65" shape-rendering="crispEdges"/><rect fill="#242f38" x="85.4" y="1.5" width="12.2" height="24.65" shape-rendering="crispEdges"/><rect fill="#242f38" x="97.6" y="1.5" width="97.6" height="24.65" shape-rendering="crispEdges"/><rect fill="#242f38" x="195.2" y="1.5" width="195.2" height="24.65" shape-rendering="crispEdges"/><rect fill="#242f38" x="390.4" y="1.5" width="36.6" height="24.65" shape-rendering="crispEdges"/><rect fill="#242f38" x="427" y="1.5" width="683.2" height="24.65" shape-rendering="crispEdges"/><rect fill="#242f38" x="1110.2" y="1.5" width="109.8" height="24.65" shape-rendering="crispEdges"/><rect fill="#2c363f" x="1220" y="1.5" width="12.2" height="24.65" shape-rendering="crispEdges"/><rect fill="#2c363f" x="1232.2" y="1.5" width="97.6" height="24.65" shape-rendering="crispEdges"/><rect fill="#2c363f" x="1329.8" y="1.5" width="12.2" height="24.65" shape-rendering="crispEdges"/><rect fill="#0178d4" x="0" y="25.9" width="12.2" height="24.65" shape-rendering="crispEdges"/><rect fill="#0178d4" x="12.2" y="25.9" width="85.4" height="24.65" shape-rendering="crispEdges"/><rect fill="#0178d4" x="97.6" y="25.9" width="12.2" height="24.65" shape-rendering="crispEdges"/><rect fill="#121212" x="109.8" y="25.9" width="12.2" height="24.65" shape-rendering="crispEdges"/><rect fill="#121212" x="122" y="25.9" width="122" height="24.65" shape-rendering="crispEdges"/><rect fill="#121212" x="244" y="25.9" width="12.2" height="24.65" shape-rendering="crispEdges"/><rect fill="#121212" x="256.2" y="25.9" width="12.2" height="24.65" shape-rendering="crispEdges"/><rect fill="#121212" x="268.4" y="25.9" width="85.4" height="24.65" shape-rendering="crispEdges"/><rect fill="#121212" x="353.8" y="25.9" width="12.2" height="24.65" shape-rendering="crispEdges"/><rect fill="#121212" x="366" y="25.9" width="12.2" height="24.65" shape-rendering="crispEdges"/><rect fill="#121212" x="378.2" y="25.9" width="73.2" height="24.65" shape-rendering="crispEdges"/><rect fill="#121212" x="451.4" y="25.9" width="12.2" height="24.65" shape-rendering="crispEdges"/><rect fill="#121212" x="463.6" y="25.9" width="12.2" height="24.65" shape-rendering="crispEdges"/><rect fill="#121212" x="475.8" y="25.9" width="85.4" height="24.65" shape-rendering="crispEdges"/><rect fill="#121212" x="561.2" y="25.9" width="12.2" height="24.65" shape-rendering="crispEdges"/><rect fill="#121212" x="573.4" y="25.9" width="12.2" height="24.65" shape-rendering="crispEdges"/><rect fill="#121212" x="585.6" y="25.9" width="36.6" height="24.65" shape-rendering="crispEdges"/><rect fill="#121212" x="622.2" y="25.9" width="12.2" height="24.65" shape-rendering="crispEdges"/><rect fill="#121212" x="634.4" y="25.9" width="707.6" height="24.65" shape-rendering="crispEdges"/><rect fill="#121212" x="0" y="50.3" width="12.2" height="24.65" shape-rendering="crispEdges"/><rect fill="#121212" x="12.2" y="50.3" width="85.4" height="24.65" shape-rendering="crispEdges"/><rect fill="#121212" x="97.6" y="50.3" width="12.2" height="24.65" shape-rendering="crispEdges"/><rect fill="#121212" x="109.8" y="50.3" width="1232.2" height="24.65" shape-rendering="crispEdges"/><rect fill="#121212" x="0" y="74.7" width="1342" height="24.65" shape-rendering="crispEdges"/><rect fill="#121212" x="0" y="99.1" width="24.4" height="24.65" shape-rendering="crispEdges"/><rect fill="#121212" x="24.4" y="99.1" width="170.8" height="24.65" shape-rendering="crispEdges"/><rect fill="#121212" x="195.2" y="99.1" width="1122.4" height="24.65" shape-rendering="crispEdges"/><rect fill="#121212" x="1317.6" y="99.1" width="24.4" height="24.65" shape-rendering="crispEdges"/><rect fill="#121212" x="0" y="123.5" width="24.4" height="24.65" shape-rendering="crispEdges"/><rect fill="#121212" x="24.4" y="123.5" width="963.8" height="24.65" shape-rendering="crispEdges"/><rect fill="#121212" x="988.2" y="123.5" width="329.4" height="24.65" shape-rendering="crispEdges"/><rect fill="#121212" x="1317.6" y="123.5" width="24.4" height="24.65" shape-rendering="crispEdges"/><rect fill="#121212" x="0" y="147.9" width="1342" height="24.65" shape-rendering="crispEdges"/><rect fill="#121212" x="0" y="172.3" width="1342" height="24.65" shape-rendering="crispEdges"/><rect fill="#121212" x="0" y="196.7" width="24.4" height="24.65" shape-rendering="crispEdges"/><rect fill="#121212" x="24.4" y="196.7" width="146.4" height="24.65" shape-rendering="crispEdges"/><rect fill="#121212" x="170.8" y="196.7" width="97.6" height="24.65" shape-rendering="crispEdges"/><rect fill="#191919" x="268.4" y="196.7" width="12.2" height="24.65" shape-rendering="crispEdges"/><rect fill="#1e1e1e" x="280.6" y="196.7" width="1024.8" height="24.65" shape-rendering="crispEdges"/><rect fill="#121212" x="1305.4" y="196.7" width="12.2" height="24.65" shape-rendering="crispEdges"/><rect fill="#121212" x="1317.6" y="196.7" width="24.4" height="24.65" shape-rendering="crispEdges"/><rect fill="#121212" x="0" y="221.1" width="24.4" height="24.65" shape-rendering="crispEdges"/><rect fill="#121212" x="24.4" y="221.1" width="146.4" height="24.65" shape-rendering="crispEdges"/><rect fill="#121212" x="170.8" y="221.1" width="97.6" height="24.65" shape-rendering="crispEdges"/><rect fill="#191919" x="268.4" y="221.1" width="12.2" height="24.65" shape-rendering="crispEdges"/><rect fill="#1e1e1e" x="280.6" y="221.1" width="24.4" height="24.65" shape-rendering="crispEdges"/><rect fill="#1e1e1e" x="305" y="221.1" width="24.4" height="24.65" shape-rendering="crispEdges"/><rect fill="#1e1e1e" x="329.4" y="221.1" width="951.6" height="24.65" shape-rendering="crispEdges"/><rect fill="#1e1e1e" x="1281" y="221.1" width="24.4" height="24.65" shape-rendering="crispEdges"/><rect fill="#121212" x="1305.4" y="221.1" width="12.2" height="24.65" shape-rendering="crispEdges"/><rect fill="#121212" x="1317.6" y="221.1" width="24.4" height="24.65" shape-rendering="crispEdges"/><rect fill="#121212" x="0" y="245.5" width="24.4" height="24.65" shape-rendering="crispEdges"/><rect fill="#121212" x="24.4" y="245.5" width="146.4" height="24.65" shape-rendering="crispEdges"/><rect fill="#121212" x="170.8" y="245.5" width="97.6" height="24.65" shape-rendering="crispEdges"/><rect fill="#191919" x="268.4" y="245.5" width="12.2" height="24.65" shape-rendering="crispEdges"/><rect fill="#1e1e1e" x="280.6" y="245.5" width="1024.8" height="24.65" shape-rendering="crispEdges"/><rect fill="#121212" x="1305.4" y="245.5" width="12.2" height="24.65" shape-rendering="crispEdges"/><rect fill="#121212" x="1317.6" y="245.5" width="24.4" height="24.65" shape-rendering="crispEdges"/><rect fill="#121212" x="0" y="269.9" width="24.4" height="24.65" shape-rendering="crispEdges"/><rect fill="#121212" x="24.4" y="269.9" width="1293.2" height="24.65" shape-rendering="crispEdges"/><rect fill="#121212" x="1317.6" y="269.9" width="24.4" height="24.65" shape-rendering="crispEdges"/><rect fill="#121212" x="0" y="294.3" width="24.4" height="24.65" shape-rendering="crispEdges"/><rect fill="#121212" x="24.4" y="294.3" width="122" height="24.65" shape-rendering="crispEdges"/><rect fill="#121212" x="146.4" y="294.3" width="122" height="24.65" shape-rendering="crispEdges"/><rect fill="#191919" x="268.4" y="294.3" width="12.2" height="24.65" shape-rendering="crispEdges"/><rect fill="#1e1e1e" x="280.6" y="294.3" width="1024.8" height="24.65" shape-rendering="crispEdges"/><rect fill="#121212" x="1305.4" y="294.3" width="12.2" height="24.65" shape-rendering="crispEdges"/><rect fill="#121212" x="1317.6" y="294.3" width="24.4" height="24.65" shape-rendering="crispEdges"/><rect fill="#121212" x="0" y="318.7" width="24.4" height="24.65" shape-rendering="crispEdges"/><rect fill="#121212" x="24.4" y="318.7" width="122" height="24.65" shape-rendering="crispEdges"/><rect fill="#121212" x="146.4" y="318.7" width="122" height="24.65" shape-rendering="crispEdges"/><rect fill="#191919" x="268.4" y="318.7" width="12.2" height="24.65" shape-rendering="crispEdges"/><rect fill="#1e1e1e" x="280.6" y="318.7" width="24.4" height="24.65" shape-rendering="crispEdges"/><rect fill="#1e1e1e" x="305" y="318.7" width="48.8" height="24.65" shape-rendering="crispEdges"/><rect fill="#1e1e1e" x="353.8" y="318.7" width="927.2" height="24.65" shape-rendering="crispEdges"/><rect fill="#1e1e1e" x="1281" y="318.7" width="24.4" height="24.65" shape-rendering="crispEdges"/><rect fill="#121212" x="1305.4" y="318.7" width="12.2" height="24.65" shape-rendering="crispEdges"/><rect fill="#121212" x="1317.6" y="318.7" width="24.4" height="24.65" shape-rendering="crispEdges"/><rect fill="#121212" x="0" y="343.1" width="24.4" height="24.65" shape-rendering="crispEdges"/><rect fill="#121212" x="24.4" y="343.1" width="122" height="24.65" shape-rendering="crispEdges"/><rect fill="#121212" x="146.4" y="343.1" width="122" height="24.65" shape-rendering="crispEdges"/><rect fill="#191919" x="268.4" y="343.1" width="12.2" height="24.65" shape-rendering="crispEdges"/><rect fill="#1e1e1e" x="280.6" y="343.1" width="1024.8" height="24.65" shape-rendering="crispEdges"/><rect fill="#121212" x="1305.4" y="343.1" width="12.2" height="24.65" shape-rendering="crispEdges"/><rect fill="#121212" x="1317.6" y="343.1" width="24.4" height="24.65" shape-rendering="crispEdges"/><rect fill="#121212" x="0" y="367.5" width="24.4" height="24.65" shape-rendering="crispEdges"/><rect fill="#121212" x="24.4" y="367.5" width="1293.2" height="24.65" shape-rendering="crispEdges"/><rect fill="#121212" x="1317.6" y="367.5" width="24.4" height="24.65" shape-rendering="crispEdges"/><rect fill="#121212" x="0" y="391.9" width="24.4" height="24.65" shape-rendering="crispEdges"/><rect fill="#121212" x="24.4" y="391.9" width="146.4" height="24.65" shape-rendering="crispEdges"/><rect fill="#121212" x="170.8" y="391.9" width="97.6" height="24.65" shape-rendering="crispEdges"/><rect fill="#191919" x="268.4" y="391.9" width="12.2" height="24.65" shape-rendering="crispEdges"/><rect fill="#1e1e1e" x="280.6" y="391.9" width="1024.8" height="24.65" shape-rendering="crispEdges"/><rect fill="#121212" x="1305.4" y="391.9" width="12.2" height="24.65" shape-rendering="crispEdges"/><rect fill="#121212" x="1317.6" y="391.9" width="24.4" height="24.65" shape-rendering="crispEdges"/><rect fill="#121212" x="0" y="416.3" width="24.4" height="24.65" shape-rendering="crispEdges"/><rect fill="#121212" x="24.4" y="416.3" width="146.4" height="24.65" shape-rendering="crispEdges"/><rect fill="#121212" x="170.8" y="416.3" width="97.6" height="24.65" shape-rendering="crispEdges"/><rect fill="#191919" x="268.4" y="416.3" width="12.2" height="24.65" shape-rendering="crispEdges"/><rect fill="#1e1e1e" x="280.6" y="416.3" width="24.4" height="24.65" shape-rendering="crispEdges"/><rect fill="#1e1e1e" x="305" y="416.3" width="122" height="24.65" shape-rendering="crispEdges"/><rect fill="#1e1e1e" x="427" y="416.3" width="854" height="24.65" shape-rendering="crispEdges"/><rect fill="#1e1e1e" x="1281" y="416.3" width="24.4" height="24.65" shape-rendering="crispEdges"/><rect fill="#121212" x="1305.4" y="416.3" width="12.2" height="24.65" shape-rendering="crispEdges"/><rect fill="#121212" x="1317.6" y="416.3" width="24.4" height="24.65" shape-rendering="crispEdges"/><rect fill="#121212" x="0" y="440.7" width="24.4" height="24.65" shape-rendering="crispEdges"/><rect fill="#121212" x="24.4" y="440.7" width="146.4" height="24.65" shape-rendering="crispEdges"/><rect fill="#121212" x="170.8" y="440.7" width="97.6" height="24.65" shape-rendering="crispEdges"/><rect fill="#191919" x="268.4" y="440.7" width="12.2" height="24.65" shape-rendering="crispEdges"/><rect fill="#1e1e1e" x="280.6" y="440.7" width="1024.8" height="24.65" shape-rendering="crispEdges"/><rect fill="#121212" x="1305.4" y="440.7" width="12.2" height="24.65" shape-rendering="crispEdges"/><rect fill="#121212" x="1317.6" y="440.7" width="24.4" height="24.65" shape-rendering="crispEdges"/><rect fill="#121212" x="0" y="465.1" width="24.4" height="24.65" shape-rendering="crispEdges"/><rect fill="#121212" x="24.4" y="465.1" width="1293.2" height="24.65" shape-rendering="crispEdges"/><rect fill="#121212" x="1317.6" y="465.1" width="24.4" height="24.65" shape-rendering="crispEdges"/><rect fill="#121212" x="0" y="489.5" width="24.4" height="24.65" shape-rendering="crispEdges"/><rect fill="#121212" x="24.4" y="489.5" width="61" height="24.65" shape-rendering="crispEdges"/><rect fill="#121212" x="85.4" y="489.5" width="183" height="24.65" shape-rendering="crispEdges"/><rect fill="#191919" x="268.4" y="489.5" width="12.2" height="24.65" shape-rendering="crispEdges"/><rect fill="#1e1e1e" x="280.6" y="489.5" width="1024.8" height="24.65" shape-rendering="crispEdges"/><rect fill="#121212" x="1305.4" y="489.5" width="12.2" height="24.65" shape-rendering="crispEdges"/><rect fill="#121212" x="1317.6" y="489.5" width="24.4" height="24.65" shape-rendering="crispEdges"/><rect fill="#121212" x="0" y="513.9" width="24.4" height="24.65" shape-rendering="crispEdges"/><rect fill="#121212" x="24.4" y="513.9" width="61" height="24.65" shape-rendering="crispEdges"/><rect fill="#121212" x="85.4" y="513.9" width="183" height="24.65" shape-rendering="crispEdges"/><rect fill="#191919" x="268.4" y="513.9" width="12.2" height="24.65" shape-rendering="crispEdges"/><rect fill="#1e1e1e" x="280.6" y="513.9" width="24.4" height="24.65" shape-rendering="crispEdges"/><rect fill="#1e1e1e" x="305" y="513.9" width="24.4" height="24.65" shape-rendering="crispEdges"/><rect fill="#1e1e1e" x="329.4" y="513.9" width="927.2" height="24.65" shape-rendering="crispEdges"/><rect fill="#1e1e1e" x="1256.6" y="513.9" width="12.2" height="24.65" shape-rendering="crispEdges"/><rect fill="#1e1e1e" x="1268.8" y="513.9" width="12.2" height="24.65" shape-rendering="crispEdges"/><rect fill="#1e1e1e" x="1281" y="513.9" width="24.4" height="24.65" shape-rendering="crispEdges"/><rect fill="#121212" x="1305.4" y="513.9" width="12.2" height="24.65" shape-rendering="crispEdges"/><rect fill="#121212" x="1317.6" y="513.9" width="24.4" height="24.65" shape-rendering="crispEdges"/><rect fill="#121212" x="0" y="538.3" width="24.4" height="24.65" shape-rendering="crispEdges"/><rect fill="#121212" x="24.4" y="538.3" width="61" height="24.65" shape-rendering="crispEdges"/><rect fill="#121212" x="85.4" y="538.3" width="183" height="24.65" shape-rendering="crispEdges"/><rect fill="#191919" x="268.4" y="538.3" width="12.2" height="24.65" shape-rendering="crispEdges"/><rect fill="#1e1e1e" x="280.6" y="538.3" width="1024.8" height="24.65" shape-rendering="crispEdges"/><rect fill="#121212" x="1305.4" y="538.3" width="12.2" height="24.65" shape-rendering="crispEdges"/><rect fill="#121212" x="1317.6" y="538.3" width="24.4" height="24.65" shape-rendering="crispEdges"/><rect fill="#121212" x="0" y="562.7" width="24.4" height="24.65" shape-rendering="crispEdges"/><rect fill="#121212" x="24.4" y="562.7" width="1293.2" height="24.65" shape-rendering="crispEdges"/><rect fill="#121212" x="1317.6" y="562.7" width="24.4" height="24.65" shape-rendering="crispEdges"/><rect fill="#121212" x="0" y="587.1" width="24.4" height="24.65" shape-rendering="crispEdges"/><rect fill="#121212" x="24.4" y="587.1" width="61" height="24.65" shape-rendering="crispEdges"/><rect fill="#121212" x="85.4" y="587.1" width="183" height="24.65" shape-rendering="crispEdges"/><rect fill="#191919" x="268.4" y="587.1" width="12.2" height="24.65" shape-rendering="crispEdges"/><rect fill="#1e1e1e" x="280.6" y="587.1" width="1024.8" height="24.65" shape-rendering="crispEdges"/><rect fill="#121212" x="1305.4" y="587.1" width="12.2" height="24.65" shape-rendering="crispEdges"/><rect fill="#121212" x="1317.6" y="587.1" width="24.4" height="24.65" shape-rendering="crispEdges"/><rect fill="#121212" x="0" y="611.5" width="24.4" height="24.65" shape-rendering="crispEdges"/><rect fill="#121212" x="24.4" y="611.5" width="61" height="24.65" shape-rendering="crispEdges"/><rect fill="#121212" x="85.4" y="611.5" width="183" height="24.65" shape-rendering="crispEdges"/><rect fill="#191919" x="268.4" y="611.5" width="12.2" height="24.65" shape-rendering="crispEdges"/><rect fill="#1e1e1e" x="280.6" y="611.5" width="24.4" height="24.65" shape-rendering="crispEdges"/><rect fill="#1e1e1e" x="305" y="611.5" width="73.2" height="24.65" shape-rendering="crispEdges"/><rect fill="#1e1e1e" x="378.2" y="611.5" width="878.4" height="24.65" shape-rendering="crispEdges"/><rect fill="#1e1e1e" x="1256.6" y="611.5" width="12.2" height="24.65" shape-rendering="crispEdges"/><rect fill="#1e1e1e" x="1268.8" y="611.5" width="12.2" height="24.65" shape-rendering="crispEdges"/><rect fill="#1e1e1e" x="1281" y="611.5" width="24.4" height="24.65" shape-rendering="crispEdges"/><rect fill="#121212" x="1305.4" y="611.5" width="12.2" height="24.65" shape-rendering="crispEdges"/><rect fill="#121212" x="1317.6" y="611.5" width="24.4" height="24.65" shape-rendering="crispEdges"/><rect fill="#121212" x="0" y="635.9" width="24.4" height="24.65" shape-rendering="crispEdges"/><rect fill="#121212" x="24.4" y="635.9" width="61" height="24.65" shape-rendering="crispEdges"/><rect fill="#121212" x="85.4" y="635.9" width="183" height="24.65" shape-rendering="crispEdges"/><rect fill="#191919" x="268.4" y="635.9" width="12.2" height="24.65" shape-rendering="crispEdges"/><rect fill="#1e1e1e" x="280.6" y="635.9" width="1024.8" height="24.65" shape-rendering="crispEdges"/><rect fill="#121212" x="1305.4" y="635.9" width="12.2" height="24.65" shape-rendering="crispEdges"/><rect fill="#121212" x="1317.6" y="635.9" width="24.4" height="24.65" shape-rendering="crispEdges"/><rect fill="#121212" x="0" y="660.3" width="24.4" height="24.65" shape-rendering="crispEdges"/><rect fill="#121212" x="24.4" y="660.3" width="1293.2" height="24.65" shape-rendering="crispEdges"/><rect fill="#121212" x="1317.6" y="660.3" width="24.4" height="24.65" shape-rendering="crispEdges"/><rect fill="#121212" x="0" y="684.7" width="24.4" height="24.65" shape-rendering="crispEdges"/><rect fill="#121212" x="24.4" y="684.7" width="109.8" height="24.65" shape-rendering="crispEdges"/><rect fill="#121212" x="134.2" y="684.7" width="109.8" height="24.65" shape-rendering="crispEdges"/><rect fill="#121212" x="244" y="684.7" width="24.4" height="24.65" shape-rendering="crispEdges"/><rect fill="#191919" x="268.4" y="684.7" width="12.2" height="24.65" shape-rendering="crispEdges"/><rect fill="#1e1e1e" x="280.6" y="684.7" width="1024.8" height="24.65" shape-rendering="crispEdges"/><rect fill="#121212" x="1305.4" y="684.7" width="12.2" height="24.65" shape-rendering="crispEdges"/><rect fill="#121212" x="1317.6" y="684.7" width="24.4" height="24.65" shape-rendering="crispEdges"/><rect fill="#121212" x="0" y="709.1" width="24.4" height="24.65" shape-rendering="crispEdges"/><rect fill="#121212" x="24.4" y="709.1" width="122" height="24.65" shape-rendering="crispEdges"/><rect fill="#121212" x="146.4" y="709.1" width="97.6" height="24.65" shape-rendering="crispEdges"/><rect fill="#121212" x="244" y="709.1" width="24.4" height="24.65" shape-rendering="crispEdges"/><rect fill="#191919" x="268.4" y="709.1" width="12.2" height="24.65" shape-rendering="crispEdges"/><rect fill="#1e1e1e" x="280.6" y="709.1" width="24.4" height="24.65" shape-rendering="crispEdges"/><rect fill="#1e1e1e" x="305" y="709.1" width="390.4" height="24.65" shape-rendering="crispEdges"/><rect fill="#1e1e1e" x="695.4" y="709.1" width="585.6" height="24.65" shape-rendering="crispEdges"/><rect fill="#1e1e1e" x="1281" y="709.1" width="24.4" height="24.65" shape-rendering="crispEdges"/><rect fill="#121212" x="1305.4" y="709.1" width="12.2" height="24.65" shape-rendering="crispEdges"/><rect fill="#121212" x="1317.6" y="709.1" width="24.4" height="24.65" shape-rendering="crispEdges"/><rect fill="#121212" x="0" y="733.5" width="24.4" height="24.65" shape-rendering="crispEdges"/><rect fill="#121212" x="24.4" y="733.5" width="219.6" height="24.65" shape-rendering="crispEdges"/><rect fill="#121212" x="244" y="733.5" width="24.4" height="24.65" shape-rendering="crispEdges"/><rect fill="#191919" x="268.4" y="733.5" width="12.2" height="24.65" shape-rendering="crispEdges"/><rect fill="#1e1e1e" x="280.6" y="733.5" width="1024.8" height="24.65" shape-rendering="crispEdges"/><rect fill="#121212" x="1305.4" y="733.5" width="12.2" height="24.65" shape-rendering="crispEdges"/><rect fill="#121212" x="1317.6" y="733.5" width="24.4" height="24.65" shape-rendering="crispEdges"/><rect fill="#121212" x="0" y="757.9" width="1342" height="24.65" shape-rendering="crispEdges"/><rect fill="#121212" x="0" y="782.3" width="1342" height="24.65" shape-rendering="crispEdges"/><rect fill="#242f38" x="0" y="806.7" width="48.8" height="24.65" shape-rendering="crispEdges"/><rect fill="#242f38" x="48.8" y="806.7" width="61" height="24.65" shape-rendering="crispEdges"/><rect fill="#242f38" x="109.8" y="806.7" width="48.8" height="24.65" shape-rendering="crispEdges"/><rect fill="#242f38" x="158.6" y="806.7" width="61" height="24.65" shape-rendering="crispEdges"/><rect fill="#242f38" x="219.6" y="806.7" width="48.8" height="24.65" shape-rendering="crispEdges"/><rect fill="#242f38" x="268.4" y="806.7" width="61" height="24.65" shape-rendering="crispEdges"/><rect fill="#242f38" x="329.4" y="806.7" width="48.8" height="24.65" shape-rendering="crispEdges"/><rect fill="#242f38" x="378.2" y="806.7" width="73.2" height="24.65" shape-rendering="crispEdges"/><rect fill="#242f38" x="451.4" y="806.7" width="48.8" height="24.65" shape-rendering="crispEdges"/><rect fill="#242f38" x="500.2" y="806.7" width="61" height="24.65" shape-rendering="crispEdges"/><rect fill="#242f38" x="561.2" y="806.7" width="48.8" height="24.65" shape-rendering="crispEdges"/><rect fill="#242f38" x="610" y="806.7" width="109.8" height="24.65" shape-rendering="crispEdges"/><rect fill="#242f38" x="719.8" y="806.7" width="475.8" height="24.65" shape-rendering="crispEdges"/><rect fill="#242f38" x="1195.6" y="806.7" width="12.2" height="24.65" shape-rendering="crispEdges"/><rect fill="#242f38" x="1207.8" y="806.7" width="24.4" height="24.65" shape-rendering="crispEdges"/><rect fill="#242f38" x="1232.2" y="806.7" width="97.6" height="24.65" shape-rendering="crispEdges"/><rect fill="#242f38" x="1329.8" y="806.7" width="12.2" height="24.65" shape-rendering="crispEdges"/>
    <g class="terminal-1338545734-matrix">
    <text class="terminal-1338545734-r2" x="12.2" y="20" textLength="12.2" clip-path="url(#terminal-1338545734-line-0)">⭘</text><text class="terminal-1338545734-r2" x="195.2" y="20" textLength="195.2" clip-path="url(#terminal-1338545734-line-0)">IRCTC&#160;Tatkal&#160;TUI</text><text class="terminal-1338545734-r3" x="390.4" y="20" textLength="36.6" clip-path="url(#terminal-1338545734-line-0)">&#160;—&#160;</text><text class="terminal-1338545734-r3" x="427" y="20" textLength="683.2" clip-path="url(#terminal-1338545734-line-0)">fill&#160;forms&#160;·&#160;poll&#160;availability&#160;·&#160;you&#160;solve&#160;CAPTCHA&#160;&amp;&#160;pay</text><text class="terminal-1338545734-r4" x="1232.2" y="20" textLength="97.6" clip-path="url(#terminal-1338545734-line-0)">00:46:36</text><text class="terminal-1338545734-r1" x="1342" y="20" textLength="12.2" clip-path="url(#terminal-1338545734-line-0)">
</text><text class="terminal-1338545734-r5" x="12.2" y="44.4" textLength="85.4" clip-path="url(#terminal-1338545734-line-1)">Journey</text><text class="terminal-1338545734-r6" x="122" y="44.4" textLength="122" clip-path="url(#terminal-1338545734-line-1)">Passengers</text><text class="terminal-1338545734-r6" x="268.4" y="44.4" textLength="85.4" clip-path="url(#terminal-1338545734-line-1)">Account</text><text class="terminal-1338545734-r6" x="378.2" y="44.4" textLength="73.2" clip-path="url(#terminal-1338545734-line-1)">Timing</text><text class="terminal-1338545734-r6" x="475.8" y="44.4" textLength="85.4" clip-path="url(#terminal-1338545734-line-1)">Browser</text><text class="terminal-1338545734-r6" x="585.6" y="44.4" textLength="36.6" clip-path="url(#terminal-1338545734-line-1)">Run</text><text class="terminal-1338545734-r1" x="1342" y="44.4" textLength="12.2" clip-path="url(#terminal-1338545734-line-1)">
</text><text class="terminal-1338545734-r7" x="0" y="68.8" textLength="12.2" clip-path="url(#terminal-1338545734-line-2)">╸</text><text class="terminal-1338545734-r8" x="12.2" y="68.8" textLength="85.4" clip-path="url(#terminal-1338545734-line-2)">━━━━━━━</text><text class="terminal-1338545734-r7" x="97.6" y="68.8" textLength="12.2" clip-path="url(#terminal-1338545734-line-2)">╺</text><text class="terminal-1338545734-r7" x="109.8" y="68.8" textLength="1232.2" clip-path="url(#terminal-1338545734-line-2)">━━━━━━━━━━━━━━━━━━━━━━━━━━━━━━━━━━━━━━━━━━━━━━━━━━━━━━━━━━━━━━━━━━━━━━━━━━━━━━━━━━━━━━━━━━━━━━━━━━━━━</text><text class="terminal-1338545734-r1" x="1342" y="68.8" textLength="12.2" clip-path="url(#terminal-1338545734-line-2)">
</text><text class="terminal-1338545734-r1" x="1342" y="93.2" textLength="12.2" clip-path="url(#terminal-1338545734-line-3)">
</text><text class="terminal-1338545734-r9" x="24.4" y="117.6" textLength="170.8" clip-path="url(#terminal-1338545734-line-4)">Where&#160;and&#160;when</text><text class="terminal-1338545734-r1" x="1342" y="117.6" textLength="12.2" clip-path="url(#terminal-1338545734-line-4)">
</text><text class="terminal-1338545734-r10" x="24.4" y="142" textLength="963.8" clip-path="url(#terminal-1338545734-line-5)">Type&#160;a&#160;station&#160;code&#160;(SC,&#160;HYB,&#160;KCG,&#160;TPTY…)&#160;—&#160;the&#160;top&#160;autocomplete&#160;match&#160;is&#160;used.</text><text class="terminal-1338545734-r1" x="1342" y="142" textLength="12.2" clip-path="url(#terminal-1338545734-line-5)">
</text><text class="terminal-1338545734-r1" x="1342" y="166.4" textLength="12.2" clip-path="url(#terminal-1338545734-line-6)">
</text><text class="terminal-1338545734-r1" x="1342" y="190.8" textLength="12.2" clip-path="url(#terminal-1338545734-line-7)">
</text><text class="terminal-1338545734-r12" x="268.4" y="215.2" textLength="12.2" clip-path="url(#terminal-1338545734-line-8)">▊</text><text class="terminal-1338545734-r13" x="280.6" y="215.2" textLength="1024.8" clip-path="url(#terminal-1338545734-line-8)">▔▔▔▔▔▔▔▔▔▔▔▔▔▔▔▔▔▔▔▔▔▔▔▔▔▔▔▔▔▔▔▔▔▔▔▔▔▔▔▔▔▔▔▔▔▔▔▔▔▔▔▔▔▔▔▔▔▔▔▔▔▔▔▔▔▔▔▔▔▔▔▔▔▔▔▔▔▔▔▔▔▔▔▔</text><text class="terminal-1338545734-r13" x="1305.4" y="215.2" textLength="12.2" clip-path="url(#terminal-1338545734-line-8)">▎</text><text class="terminal-1338545734-r1" x="1342" y="215.2" textLength="12.2" clip-path="url(#terminal-1338545734-line-8)">
</text><text class="terminal-1338545734-r11" x="24.4" y="239.6" textLength="146.4" clip-path="url(#terminal-1338545734-line-9)">From&#160;station</text><text class="terminal-1338545734-r12" x="268.4" y="239.6" textLength="12.2" clip-path="url(#terminal-1338545734-line-9)">▊</text><text class="terminal-1338545734-r2" x="305" y="239.6" textLength="24.4" clip-path="url(#terminal-1338545734-line-9)">SC</text><text class="terminal-1338545734-r13" x="1305.4" y="239.6" textLength="12.2" clip-path="url(#terminal-1338545734-line-9)">▎</text><text class="terminal-1338545734-r1" x="1342" y="239.6" textLength="12.2" clip-path="url(#terminal-1338545734-line-9)">
</text><text class="terminal-1338545734-r12" x="268.4" y="264" textLength="12.2" clip-path="url(#terminal-1338545734-line-10)">▊</text><text class="terminal-1338545734-r13" x="280.6" y="264" textLength="1024.8" clip-path="url(#terminal-1338545734-line-10)">▁▁▁▁▁▁▁▁▁▁▁▁▁▁▁▁▁▁▁▁▁▁▁▁▁▁▁▁▁▁▁▁▁▁▁▁▁▁▁▁▁▁▁▁▁▁▁▁▁▁▁▁▁▁▁▁▁▁▁▁▁▁▁▁▁▁▁▁▁▁▁▁▁▁▁▁▁▁▁▁▁▁▁▁</text><text class="terminal-1338545734-r13" x="1305.4" y="264" textLength="12.2" clip-path="url(#terminal-1338545734-line-10)">▎</text><text class="terminal-1338545734-r1" x="1342" y="264" textLength="12.2" clip-path="url(#terminal-1338545734-line-10)">
</text><text class="terminal-1338545734-r1" x="1342" y="288.4" textLength="12.2" clip-path="url(#terminal-1338545734-line-11)">
</text><text class="terminal-1338545734-r12" x="268.4" y="312.8" textLength="12.2" clip-path="url(#terminal-1338545734-line-12)">▊</text><text class="terminal-1338545734-r13" x="280.6" y="312.8" textLength="1024.8" clip-path="url(#terminal-1338545734-line-12)">▔▔▔▔▔▔▔▔▔▔▔▔▔▔▔▔▔▔▔▔▔▔▔▔▔▔▔▔▔▔▔▔▔▔▔▔▔▔▔▔▔▔▔▔▔▔▔▔▔▔▔▔▔▔▔▔▔▔▔▔▔▔▔▔▔▔▔▔▔▔▔▔▔▔▔▔▔▔▔▔▔▔▔▔</text><text class="terminal-1338545734-r13" x="1305.4" y="312.8" textLength="12.2" clip-path="url(#terminal-1338545734-line-12)">▎</text><text class="terminal-1338545734-r1" x="1342" y="312.8" textLength="12.2" clip-path="url(#terminal-1338545734-line-12)">
</text><text class="terminal-1338545734-r11" x="24.4" y="337.2" textLength="122" clip-path="url(#terminal-1338545734-line-13)">To&#160;station</text><text class="terminal-1338545734-r12" x="268.4" y="337.2" textLength="12.2" clip-path="url(#terminal-1338545734-line-13)">▊</text><text class="terminal-1338545734-r2" x="305" y="337.2" textLength="48.8" clip-path="url(#terminal-1338545734-line-13)">TPTY</text><text class="terminal-1338545734-r13" x="1305.4" y="337.2" textLength="12.2" clip-path="url(#terminal-1338545734-line-13)">▎</text><text class="terminal-1338545734-r1" x="1342" y="337.2" textLength="12.2" clip-path="url(#terminal-1338545734-line-13)">
</text><text class="terminal-1338545734-r12" x="268.4" y="361.6" textLength="12.2" clip-path="url(#terminal-1338545734-line-14)">▊</text><text class="terminal-1338545734-r13" x="280.6" y="361.6" textLength="1024.8" clip-path="url(#terminal-1338545734-line-14)">▁▁▁▁▁▁▁▁▁▁▁▁▁▁▁▁▁▁▁▁▁▁▁▁▁▁▁▁▁▁▁▁▁▁▁▁▁▁▁▁▁▁▁▁▁▁▁▁▁▁▁▁▁▁▁▁▁▁▁▁▁▁▁▁▁▁▁▁▁▁▁▁▁▁▁▁▁▁▁▁▁▁▁▁</text><text class="terminal-1338545734-r13" x="1305.4" y="361.6" textLength="12.2" clip-path="url(#terminal-1338545734-line-14)">▎</text><text class="terminal-1338545734-r1" x="1342" y="361.6" textLength="12.2" clip-path="url(#terminal-1338545734-line-14)">
</text><text class="terminal-1338545734-r1" x="1342" y="386" textLength="12.2" clip-path="url(#terminal-1338545734-line-15)">
</text><text class="terminal-1338545734-r12" x="268.4" y="410.4" textLength="12.2" clip-path="url(#terminal-1338545734-line-16)">▊</text><text class="terminal-1338545734-r13" x="280.6" y="410.4" textLength="1024.8" clip-path="url(#terminal-1338545734-line-16)">▔▔▔▔▔▔▔▔▔▔▔▔▔▔▔▔▔▔▔▔▔▔▔▔▔▔▔▔▔▔▔▔▔▔▔▔▔▔▔▔▔▔▔▔▔▔▔▔▔▔▔▔▔▔▔▔▔▔▔▔▔▔▔▔▔▔▔▔▔▔▔▔▔▔▔▔▔▔▔▔▔▔▔▔</text><text class="terminal-1338545734-r13" x="1305.4" y="410.4" textLength="12.2" clip-path="url(#terminal-1338545734-line-16)">▎</text><text class="terminal-1338545734-r1" x="1342" y="410.4" textLength="12.2" clip-path="url(#terminal-1338545734-line-16)">
</text><text class="terminal-1338545734-r11" x="24.4" y="434.8" textLength="146.4" clip-path="url(#terminal-1338545734-line-17)">Journey&#160;date</text><text class="terminal-1338545734-r12" x="268.4" y="434.8" textLength="12.2" clip-path="url(#terminal-1338545734-line-17)">▊</text><text class="terminal-1338545734-r2" x="305" y="434.8" textLength="122" clip-path="url(#terminal-1338545734-line-17)">24-07-2026</text><text class="terminal-1338545734-r13" x="1305.4" y="434.8" textLength="12.2" clip-path="url(#terminal-1338545734-line-17)">▎</text><text class="terminal-1338545734-r1" x="1342" y="434.8" textLength="12.2" clip-path="url(#terminal-1338545734-line-17)">
</text><text class="terminal-1338545734-r12" x="268.4" y="459.2" textLength="12.2" clip-path="url(#terminal-1338545734-line-18)">▊</text><text class="terminal-1338545734-r13" x="280.6" y="459.2" textLength="1024.8" clip-path="url(#terminal-1338545734-line-18)">▁▁▁▁▁▁▁▁▁▁▁▁▁▁▁▁▁▁▁▁▁▁▁▁▁▁▁▁▁▁▁▁▁▁▁▁▁▁▁▁▁▁▁▁▁▁▁▁▁▁▁▁▁▁▁▁▁▁▁▁▁▁▁▁▁▁▁▁▁▁▁▁▁▁▁▁▁▁▁▁▁▁▁▁</text><text class="terminal-1338545734-r13" x="1305.4" y="459.2" textLength="12.2" clip-path="url(#terminal-1338545734-line-18)">▎</text><text class="terminal-1338545734-r1" x="1342" y="459.2" textLength="12.2" clip-path="url(#terminal-1338545734-line-18)">
</text><text class="terminal-1338545734-r1" x="1342" y="483.6" textLength="12.2" clip-path="url(#terminal-1338545734-line-19)">
</text><text class="terminal-1338545734-r12" x="268.4" y="508" textLength="12.2" clip-path="url(#terminal-1338545734-line-20)">▊</text><text class="terminal-1338545734-r13" x="280.6" y="508" textLength="1024.8" clip-path="url(#terminal-1338545734-line-20)">▔▔▔▔▔▔▔▔▔▔▔▔▔▔▔▔▔▔▔▔▔▔▔▔▔▔▔▔▔▔▔▔▔▔▔▔▔▔▔▔▔▔▔▔▔▔▔▔▔▔▔▔▔▔▔▔▔▔▔▔▔▔▔▔▔▔▔▔▔▔▔▔▔▔▔▔▔▔▔▔▔▔▔▔</text><text class="terminal-1338545734-r13" x="1305.4" y="508" textLength="12.2" clip-path="url(#terminal-1338545734-line-20)">▎</text><text class="terminal-1338545734-r1" x="1342" y="508" textLength="12.2" clip-path="url(#terminal-1338545734-line-20)">
</text><text class="terminal-1338545734-r11" x="24.4" y="532.4" textLength="61" clip-path="url(#terminal-1338545734-line-21)">Class</text><text class="terminal-1338545734-r12" x="268.4" y="532.4" textLength="12.2" clip-path="url(#terminal-1338545734-line-21)">▊</text><text class="terminal-1338545734-r2" x="305" y="532.4" textLength="24.4" clip-path="url(#terminal-1338545734-line-21)">SL</text><text class="terminal-1338545734-r14" x="1268.8" y="532.4" textLength="12.2" clip-path="url(#terminal-1338545734-line-21)">▼</text><text class="terminal-1338545734-r13" x="1305.4" y="532.4" textLength="12.2" clip-path="url(#terminal-1338545734-line-21)">▎</text><text class="terminal-1338545734-r1" x="1342" y="532.4" textLength="12.2" clip-path="url(#terminal-1338545734-line-21)">
</text><text class="terminal-1338545734-r12" x="268.4" y="556.8" textLength="12.2" clip-path="url(#terminal-1338545734-line-22)">▊</text><text class="terminal-1338545734-r13" x="280.6" y="556.8" textLength="1024.8" clip-path="url(#terminal-1338545734-line-22)">▁▁▁▁▁▁▁▁▁▁▁▁▁▁▁▁▁▁▁▁▁▁▁▁▁▁▁▁▁▁▁▁▁▁▁▁▁▁▁▁▁▁▁▁▁▁▁▁▁▁▁▁▁▁▁▁▁▁▁▁▁▁▁▁▁▁▁▁▁▁▁▁▁▁▁▁▁▁▁▁▁▁▁▁</text><text class="terminal-1338545734-r13" x="1305.4" y="556.8" textLength="12.2" clip-path="url(#terminal-1338545734-line-22)">▎</text><text class="terminal-1338545734-r1" x="1342" y="556.8" textLength="12.2" clip-path="url(#terminal-1338545734-line-22)">
</text><text class="terminal-1338545734-r1" x="1342" y="581.2" textLength="12.2" clip-path="url(#terminal-1338545734-line-23)">
</text><text class="terminal-1338545734-r12" x="268.4" y="605.6" textLength="12.2" clip-path="url(#terminal-1338545734-line-24)">▊</text><text class="terminal-1338545734-r13" x="280.6" y="605.6" textLength="1024.8" clip-path="url(#terminal-1338545734-line-24)">▔▔▔▔▔▔▔▔▔▔▔▔▔▔▔▔▔▔▔▔▔▔▔▔▔▔▔▔▔▔▔▔▔▔▔▔▔▔▔▔▔▔▔▔▔▔▔▔▔▔▔▔▔▔▔▔▔▔▔▔▔▔▔▔▔▔▔▔▔▔▔▔▔▔▔▔▔▔▔▔▔▔▔▔</text><text class="terminal-1338545734-r13" x="1305.4" y="605.6" textLength="12.2" clip-path="url(#terminal-1338545734-line-24)">▎</text><text class="terminal-1338545734-r1" x="1342" y="605.6" textLength="12.2" clip-path="url(#terminal-1338545734-line-24)">
</text><text class="terminal-1338545734-r11" x="24.4" y="630" textLength="61" clip-path="url(#terminal-1338545734-line-25)">Quota</text><text class="terminal-1338545734-r12" x="268.4" y="630" textLength="12.2" clip-path="url(#terminal-1338545734-line-25)">▊</text><text class="terminal-1338545734-r2" x="305" y="630" textLength="73.2" clip-path="url(#terminal-1338545734-line-25)">TATKAL</text><text class="terminal-1338545734-r14" x="1268.8" y="630" textLength="12.2" clip-path="url(#terminal-1338545734-line-25)">▼</text><text class="terminal-1338545734-r13" x="1305.4" y="630" textLength="12.2" clip-path="url(#terminal-1338545734-line-25)">▎</text><text class="terminal-1338545734-r1" x="1342" y="630" textLength="12.2" clip-path="url(#terminal-1338545734-line-25)">
</text><text class="terminal-1338545734-r12" x="268.4" y="654.4" textLength="12.2" clip-path="url(#terminal-1338545734-line-26)">▊</text><text class="terminal-1338545734-r13" x="280.6" y="654.4" textLength="1024.8" clip-path="url(#terminal-1338545734-line-26)">▁▁▁▁▁▁▁▁▁▁▁▁▁▁▁▁▁▁▁▁▁▁▁▁▁▁▁▁▁▁▁▁▁▁▁▁▁▁▁▁▁▁▁▁▁▁▁▁▁▁▁▁▁▁▁▁▁▁▁▁▁▁▁▁▁▁▁▁▁▁▁▁▁▁▁▁▁▁▁▁▁▁▁▁</text><text class="terminal-1338545734-r13" x="1305.4" y="654.4" textLength="12.2" clip-path="url(#terminal-1338545734-line-26)">▎</text><text class="terminal-1338545734-r1" x="1342" y="654.4" textLength="12.2" clip-path="url(#terminal-1338545734-line-26)">
</text><text class="terminal-1338545734-r1" x="1342" y="678.8" textLength="12.2" clip-path="url(#terminal-1338545734-line-27)">
</text><text class="terminal-1338545734-r11" x="24.4" y="703.2" textLength="109.8" clip-path="url(#terminal-1338545734-line-28)">Train&#160;no.</text><text class="terminal-1338545734-r12" x="268.4" y="703.2" textLength="12.2" clip-path="url(#terminal-1338545734-line-28)">▊</text><text class="terminal-1338545734-r13" x="280.6" y="703.2" textLength="1024.8" clip-path="url(#terminal-1338545734-line-28)">▔▔▔▔▔▔▔▔▔▔▔▔▔▔▔▔▔▔▔▔▔▔▔▔▔▔▔▔▔▔▔▔▔▔▔▔▔▔▔▔▔▔▔▔▔▔▔▔▔▔▔▔▔▔▔▔▔▔▔▔▔▔▔▔▔▔▔▔▔▔▔▔▔▔▔▔▔▔▔▔▔▔▔▔</text><text class="terminal-1338545734-r13" x="1305.4" y="703.2" textLength="12.2" clip-path="url(#terminal-1338545734-line-28)">▎</text><text class="terminal-1338545734-r1" x="1342" y="703.2" textLength="12.2" clip-path="url(#terminal-1338545734-line-28)">
</text><text class="terminal-1338545734-r11" x="24.4" y="727.6" textLength="122" clip-path="url(#terminal-1338545734-line-29)">(optional)</text><text class="terminal-1338545734-r12" x="268.4" y="727.6" textLength="12.2" clip-path="url(#terminal-1338545734-line-29)">▊</text><text class="terminal-1338545734-r15" x="305" y="727.6" textLength="390.4" clip-path="url(#terminal-1338545734-line-29)">e.g.&#160;12734&#160;—&#160;blank&#160;=&#160;first&#160;match</text><text class="terminal-1338545734-r13" x="1305.4" y="727.6" textLength="12.2" clip-path="url(#terminal-1338545734-line-29)">▎</text><text class="terminal-1338545734-r1" x="1342" y="727.6" textLength="12.2" clip-path="url(#terminal-1338545734-line-29)">
</text><text class="terminal-1338545734-r12" x="268.4" y="752" textLength="12.2" clip-path="url(#terminal-1338545734-line-30)">▊</text><text class="terminal-1338545734-r13" x="280.6" y="752" textLength="1024.8" clip-path="url(#terminal-1338545734-line-30)">▁▁▁▁▁▁▁▁▁▁▁▁▁▁▁▁▁▁▁▁▁▁▁▁▁▁▁▁▁▁▁▁▁▁▁▁▁▁▁▁▁▁▁▁▁▁▁▁▁▁▁▁▁▁▁▁▁▁▁▁▁▁▁▁▁▁▁▁▁▁▁▁▁▁▁▁▁▁▁▁▁▁▁▁</text><text class="terminal-1338545734-r13" x="1305.4" y="752" textLength="12.2" clip-path="url(#terminal-1338545734-line-30)">▎</text><text class="terminal-1338545734-r1" x="1342" y="752" textLength="12.2" clip-path="url(#terminal-1338545734-line-30)">
</text><text class="terminal-1338545734-r1" x="1342" y="776.4" textLength="12.2" clip-path="url(#terminal-1338545734-line-31)">
</text><text class="terminal-1338545734-r1" x="1342" y="800.8" textLength="12.2" clip-path="url(#terminal-1338545734-line-32)">
</text><text class="terminal-1338545734-r16" x="0" y="825.2" textLength="48.8" clip-path="url(#terminal-1338545734-line-33)">&#160;^q&#160;</text><text class="terminal-1338545734-r2" x="48.8" y="825.2" textLength="61" clip-path="url(#terminal-1338545734-line-33)">Quit&#160;</text><text class="terminal-1338545734-r16" x="109.8" y="825.2" textLength="48.8" clip-path="url(#terminal-1338545734-line-33)">&#160;^s&#160;</text><text class="terminal-1338545734-r2" x="158.6" y="825.2" textLength="61" clip-path="url(#terminal-1338545734-line-33)">Save&#160;</text><text class="terminal-1338545734-r16" x="219.6" y="825.2" textLength="48.8" clip-path="url(#terminal-1338545734-line-33)">&#160;^o&#160;</text><text class="terminal-1338545734-r2" x="268.4" y="825.2" textLength="61" clip-path="url(#terminal-1338545734-line-33)">Load&#160;</text><text class="terminal-1338545734-r16" x="329.4" y="825.2" textLength="48.8" clip-path="url(#terminal-1338545734-line-33)">&#160;^r&#160;</text><text class="terminal-1338545734-r2" x="378.2" y="825.2" textLength="73.2" clip-path="url(#terminal-1338545734-line-33)">Start&#160;</text><text class="terminal-1338545734-r16" x="451.4" y="825.2" textLength="48.8" clip-path="url(#terminal-1338545734-line-33)">&#160;^t&#160;</text><text class="terminal-1338545734-r2" x="500.2" y="825.2" textLength="61" clip-path="url(#terminal-1338545734-line-33)">Stop&#160;</text><text class="terminal-1338545734-r16" x="561.2" y="825.2" textLength="48.8" clip-path="url(#terminal-1338545734-line-33)">&#160;f5&#160;</text><text class="terminal-1338545734-r2" x="610" y="825.2" textLength="109.8" clip-path="url(#terminal-1338545734-line-33)">Validate&#160;</text><text class="terminal-1338545734-r17" x="1195.6" y="825.2" textLength="12.2" clip-path="url(#terminal-1338545734-line-33)">▏</text><text class="terminal-1338545734-r16" x="1207.8" y="825.2" textLength="24.4" clip-path="url(#terminal-1338545734-line-33)">^p</text><text class="terminal-1338545734-r2" x="1232.2" y="825.2" textLength="97.6" clip-path="url(#terminal-1338545734-line-33)">&#160;palette</text>
    </g>
    </g>
</svg>
