<svg class="rich-terminal" viewBox="0 0 1360 879.5999999999999" xmlns="http://www.w3.org/2000/svg">
    <!-- Generated with Rich https://www.textualize.io -->
    <style>

    @font-face {
        font-family: "Fira Code";
        src: local("FiraCode-Regular"),
                url("https://cdnjs.cloudflare.com/ajax/libs/firacode/6.2.0/woff2/FiraCode-Regular.woff2") format("woff2"),
                url("https://cdnjs.cloudflare.com/ajax/libs/firacode/6.2.0/woff/FiraCode-Regular.woff") format("woff");
        font-style: normal;
        font-weight: 400;
    }
    @font-face {
        font-family: "Fira Code";
        src: local("FiraCode-Bold"),
                url("https://cdnjs.cloudflare.com/ajax/libs/firacode/6.2.0/woff2/FiraCode-Bold.woff2") format("woff2"),
                url("https://cdnjs.cloudflare.com/ajax/libs/firacode/6.2.0/woff/FiraCode-Bold.woff") format("woff");
        font-style: bold;
        font-weight: 700;
    }

    .terminal-3023211497-matrix {
        font-family: Fira Code, monospace;
        font-size: 20px;
        line-height: 24.4px;
        font-variant-east-asian: full-width;
    }

    .terminal-3023211497-title {
        font-size: 18px;
        font-weight: bold;
        font-family: arial;
    }

    .terminal-3023211497-r1 { fill: #c5c8c6 }
.terminal-3023211497-r2 { fill: #e0e0e0 }
.terminal-3023211497-r3 { fill: #a0a3a6 }
.terminal-3023211497-r4 { fill: #c5c6c7 }
.terminal-3023211497-r5 { fill: #797979 }
.terminal-3023211497-r6 { fill: #ddedf9;font-weight: bold }
.terminal-3023211497-r7 { fill: #4f4f4f }
.terminal-3023211497-r8 { fill: #0178d4 }
.terminal-3023211497-r9 { fill: #fea62b;font-weight: bold }
.terminal-3023211497-r10 { fill: #a0a0a0;font-style: italic; }
.terminal-3023211497-r11 { fill: #a0a0a0 }
.terminal-3023211497-r12 { fill: #121212 }
.terminal-3023211497-r13 { fill: #191919 }
.terminal-3023211497-r14 { fill: #1e1e1e }
.terminal-3023211497-r15 { fill: #ffa62b;font-weight: bold }
.terminal-3023211497-r16 { fill: #495259 }
    </style>

    <defs>
    <clipPath id="terminal-3023211497-clip-terminal">
      <rect x="0" y="0" width="1341.0" height="828.5999999999999" />
    </clipPath>
    <clipPath id="terminal-3023211497-line-0">
    <rect x="0" y="1.5" width="1342" height="24.65"/>
            </clipPath>
<clipPath id="terminal-3023211497-line-1">
    <rect x="0" y="25.9" width="1342" height="24.65"/>
            </clipPath>
<clipPath id="terminal-3023211497-line-2">
    <rect x="0" y="50.3" width="1342" height="24.65"/>
            </clipPath>
<clipPath id="terminal-3023211497-line-3">
    <rect x="0" y="74.7" width="1342" height="24.65"/>
            </clipPath>
<clipPath id="terminal-3023211497-line-4">
    <rect x="0" y="99.1" width="1342" height="24.65"/>
            </clipPath>
<clipPath id="terminal-3023211497-line-5">
    <rect x="0" y="123.5" width="1342" height="24.65"/>
            </clipPath>
<clipPath id="terminal-3023211497-line-6">
    <rect x="0" y="147.9" width="1342" height="24.65"/>
            </clipPath>
<clipPath id="terminal-3023211497-line-7">
    <rect x="0" y="172.3" width="1342" height="24.65"/>
            </clipPath>
<clipPath id="terminal-3023211497-line-8">
    <rect x="0" y="196.7" width="1342" height="24.65"/>
            </clipPath>
<clipPath id="terminal-3023211497-line-9">
    <rect x="0" y="221.1" width="1342" height="24.65"/>
            </clipPath>
<clipPath id="terminal-3023211497-line-10">
    <rect x="0" y="245.5" width="1342" height="24.65"/>
            </clipPath>
<clipPath id="terminal-3023211497-line-11">
    <rect x="0" y="269.9" width="1342" height="24.65"/>
            </clipPath>
<clipPath id="terminal-3023211497-line-12">
    <rect x="0" y="294.3" width="1342" height="24.65"/>
            </clipPath>
<clipPath id="terminal-3023211497-line-13">
    <rect x="0" y="318.7" width="1342" height="24.65"/>
            </clipPath>
<clipPath id="terminal-3023211497-line-14">
    <rect x="0" y="343.1" width="1342" height="24.65"/>
            </clipPath>
<clipPath id="terminal-3023211497-line-15">
    <rect x="0" y="367.5" width="1342" height="24.65"/>
            </clipPath>
<clipPath id="terminal-3023211497-line-16">
    <rect x="0" y="391.9" width="1342" height="24.65"/>
            </clipPath>
<clipPath id="terminal-3023211497-line-17">
    <rect x="0" y="416.3" width="1342" height="24.65"/>
            </clipPath>
<clipPath id="terminal-3023211497-line-18">
    <rect x="0" y="440.7" width="1342" height="24.65"/>
            </clipPath>
<clipPath id="terminal-3023211497-line-19">
    <rect x="0" y="465.1" width="1342" height="24.65"/>
            </clipPath>
<clipPath id="terminal-3023211497-line-20">
    <rect x="0" y="489.5" width="1342" height="24.65"/>
            </clipPath>
<clipPath id="terminal-3023211497-line-21">
    <rect x="0" y="513.9" width="1342" height="24.65"/>
            </clipPath>
<clipPath id="terminal-3023211497-line-22">
    <rect x="0" y="538.3" width="1342" height="24.65"/>
            </clipPath>
<clipPath id="terminal-3023211497-line-23">
    <rect x="0" y="562.7" width="1342" height="24.65"/>
            </clipPath>
<clipPath id="terminal-3023211497-line-24">
    <rect x="0" y="587.1" width="1342" height="24.65"/>
            </clipPath>
<clipPath id="terminal-3023211497-line-25">
    <rect x="0" y="611.5" width="1342" height="24.65"/>
            </clipPath>
<clipPath id="terminal-3023211497-line-26">
    <rect x="0" y="635.9" width="1342" height="24.65"/>
            </clipPath>
<clipPath id="terminal-3023211497-line-27">
    <rect x="0" y="660.3" width="1342" height="24.65"/>
            </clipPath>
<clipPath id="terminal-3023211497-line-28">
    <rect x="0" y="684.7" width="1342" height="24.65"/>
            </clipPath>
<clipPath id="terminal-3023211497-line-29">
    <rect x="0" y="709.1" width="1342" height="24.65"/>
            </clipPath>
<clipPath id="terminal-3023211497-line-30">
    <rect x="0" y="733.5" width="1342" height="24.65"/>
            </clipPath>
<clipPath id="terminal-3023211497-line-31">
    <rect x="0" y="757.9" width="1342" height="24.65"/>
            </clipPath>
<clipPath id="terminal-3023211497-line-32">
    <rect x="0" y="782.3" width="1342" height="24.65"/>
            </clipPath>
    </defs>

    <rect fill="#292929" stroke="rgba(255,255,255,0.35)" stroke-width="1" x="1" y="1" width="1358" height="877.6" rx="8"/><text class="terminal-3023211497-title" fill="#c5c8c6" text-anchor="middle" x="679" y="27">IRCTC&#160;Tatkal&#160;TUI</text>
            <g transform="translate(26,22)">
            <circle cx="0" cy="0" r="7" fill="#ff5f57"/>
            <circle cx="22" cy="0" r="7" fill="#febc2e"/>
            <circle cx="44" cy="0" r="7" fill="#28c840"/>
            </g>
        
    <g transform="translate(9, 41)" clip-path="url(#terminal-3023211497-clip-terminal)">
    <rect fill="#242f38" x="0" y="1.5" width="12.2" height="24.65" shape-rendering="crispEdges"/><rect fill="#242f38" x="12.2" y="1.5" width="12.2" height="24.65" shape-rendering="crispEdges"/><rect fill="#242f38" x="24.4" y="1.5" width="61" height="24.65" shape-rendering="crispEdges"/><rect fill="#242f38" x="85.4" y="1.5" width="12.2" height="24.65" shape-rendering="crispEdges"/><rect fill="#242f38" x="97.6" y="1.5" width="97.6" height="24.65" shape-rendering="crispEdges"/><rect fill="#242f38" x="195.2" y="1.5" width="195.2" height="24.65" shape-rendering="crispEdges"/><rect fill="#242f38" x="390.4" y="1.5" width="36.6" height="24.65" shape-rendering="crispEdges"/><rect fill="#242f38" x="427" y="1.5" width="683.2" height="24.65" shape-rendering="crispEdges"/><rect fill="#242f38" x="1110.2" y="1.5" width="109.8" height="24.65" shape-rendering="crispEdges"/><rect fill="#2c363f" x="1220" y="1.5" width="12.2" height="24.65" shape-rendering="crispEdges"/><rect fill="#2c363f" x="1232.2" y="1.5" width="97.6" height="24.65" shape-rendering="crispEdges"/><rect fill="#2c363f" x="1329.8" y="1.5" width="12.2" height="24.65" shape-rendering="crispEdges"/><rect fill="#121212" x="0" y="25.9" width="12.2" height="24.65" shape-rendering="crispEdges"/><rect fill="#121212" x="12.2" y="25.9" width="85.4" height="24.65" shape-rendering="crispEdges"/><rect fill="#121212" x="97.6" y="25.9" width="12.2" height="24.65" shape-rendering="crispEdges"/><rect fill="#121212" x="109.8" y="25.9" width="12.2" height="24.65" shape-rendering="crispEdges"/><rect fill="#121212" x="122" y="25.9" width="122" height="24.65" shape-rendering="crispEdges"/><rect fill="#121212" x="244" y="25.9" width="12.2" height="24.65" shape-rendering="crispEdges"/><rect fill="#121212" x="256.2" y="25.9" width="12.2" height="24.65" shape-rendering="crispEdges"/><rect fill="#121212" x="268.4" y="25.9" width="85.4" height="24.65" shape-rendering="crispEdges"/><rect fill="#121212" x="353.8" y="25.9" width="12.2" height="24.65" shape-rendering="crispEdges"/><rect fill="#0178d4" x="366" y="25.9" width="12.2" height="24.65" shape-rendering="crispEdges"/><rect fill="#0178d4" x="378.2" y="25.9" width="73.2" height="24.65" shape-rendering="crispEdges"/><rect fill="#0178d4" x="451.4" y="25.9" width="12.2" height="24.65" shape-rendering="crispEdges"/><rect fill="#121212" x="463.6" y="25.9" width="12.2" height="24.65" shape-rendering="crispEdges"/><rect fill="#121212" x="475.8" y="25.9" width="85.4" height="24.65" shape-rendering="crispEdges"/><rect fill="#121212" x="561.2" y="25.9" width="12.2" height="24.65" shape-rendering="crispEdges"/><rect fill="#121212" x="573.4" y="25.9" width="12.2" height="24.65" shape-rendering="crispEdges"/><rect fill="#121212" x="585.6" y="25.9" width="36.6" height="24.65" shape-rendering="crispEdges"/><rect fill="#121212" x="622.2" y="25.9" width="12.2" height="24.65" shape-rendering="crispEdges"/><rect fill="#121212" x="634.4" y="25.9" width="707.6" height="24.65" shape-rendering="crispEdges"/><rect fill="#121212" x="0" y="50.3" width="366" height="24.65" shape-rendering="crispEdges"/><rect fill="#121212" x="366" y="50.3" width="12.2" height="24.65" shape-rendering="crispEdges"/><rect fill="#121212" x="378.2" y="50.3" width="73.2" height="24.65" shape-rendering="crispEdges"/><rect fill="#121212" x="451.4" y="50.3" width="12.2" height="24.65" shape-rendering="crispEdges"/><rect fill="#121212" x="463.6" y="50.3" width="878.4" height="24.65" shape-rendering="crispEdges"/><rect fill="#121212" x="0" y="74.7" width="1342" height="24.65" shape-rendering="crispEdges"/><rect fill="#121212" x="0" y="99.1" width="24.4" height="24.65" shape-rendering="crispEdges"/><rect fill="#121212" x="24.4" y="99.1" width="195.2" height="24.65" shape-rendering="crispEdges"/><rect fill="#121212" x="219.6" y="99.1" width="1098" height="24.65" shape-rendering="crispEdges"/><rect fill="#121212" x="1317.6" y="99.1" width="24.4" height="24.65" shape-rendering="crispEdges"/><rect fill="#121212" x="0" y="123.5" width="24.4" height="24.65" shape-rendering="crispEdges"/><rect fill="#121212" x="24.4" y="123.5" width="1268.8" height="24.65" shape-rendering="crispEdges"/><rect fill="#121212" x="1293.2" y="123.5" width="24.4" height="24.65" shape-rendering="crispEdges"/><rect fill="#121212" x="1317.6" y="123.5" width="24.4" height="24.65" shape-rendering="crispEdges"/><rect fill="#121212" x="0" y="147.9" width="24.4" height="24.65" shape-rendering="crispEdges"/><rect fill="#121212" x="24.4" y="147.9" width="231.8" height="24.65" shape-rendering="crispEdges"/><rect fill="#121212" x="256.2" y="147.9" width="1061.4" height="24.65" shape-rendering="crispEdges"/><rect fill="#121212" x="1317.6" y="147.9" width="24.4" height="24.65" shape-rendering="crispEdges"/><rect fill="#121212" x="0" y="172.3" width="1342" height="24.65" shape-rendering="crispEdges"/><rect fill="#121212" x="0" y="196.7" width="1342" height="24.65" shape-rendering="crispEdges"/><rect fill="#121212" x="0" y="221.1" width="24.4" height="24.65" shape-rendering="crispEdges"/><rect fill="#121212" x="24.4" y="221.1" width="219.6" height="24.65" shape-rendering="crispEdges"/><rect fill="#121212" x="244" y="221.1" width="24.4" height="24.65" shape-rendering="crispEdges"/><rect fill="#191919" x="268.4" y="221.1" width="12.2" height="24.65" shape-rendering="crispEdges"/><rect fill="#1e1e1e" x="280.6" y="221.1" width="1024.8" height="24.65" shape-rendering="crispEdges"/><rect fill="#121212" x="1305.4" y="221.1" width="12.2" height="24.65" shape-rendering="crispEdges"/><rect fill="#121212" x="1317.6" y="221.1" width="24.4" height="24.65" shape-rendering="crispEdges"/><rect fill="#121212" x="0" y="245.5" width="24.4" height="24.65" shape-rendering="crispEdges"/><rect fill="#121212" x="24.4" y="245.5" width="219.6" height="24.65" shape-rendering="crispEdges"/><rect fill="#121212" x="244" y="245.5" width="24.4" height="24.65" shape-rendering="crispEdges"/><rect fill="#191919" x="268.4" y="245.5" width="12.2" height="24.65" shape-rendering="crispEdges"/><rect fill="#1e1e1e" x="280.6" y="245.5" width="24.4" height="24.65" shape-rendering="crispEdges"/><rect fill="#1e1e1e" x="305" y="245.5" width="48.8" height="24.65" shape-rendering="crispEdges"/><rect fill="#1e1e1e" x="353.8" y="245.5" width="927.2" height="24.65" shape-rendering="crispEdges"/><rect fill="#1e1e1e" x="1281" y="245.5" width="24.4" height="24.65" shape-rendering="crispEdges"/><rect fill="#121212" x="1305.4" y="245.5" width="12.2" height="24.65" shape-rendering="crispEdges"/><rect fill="#121212" x="1317.6" y="245.5" width="24.4" height="24.65" shape-rendering="crispEdges"/><rect fill="#121212" x="0" y="269.9" width="24.4" height="24.65" shape-rendering="crispEdges"/><rect fill="#121212" x="24.4" y="269.9" width="219.6" height="24.65" shape-rendering="crispEdges"/><rect fill="#121212" x="244" y="269.9" width="24.4" height="24.65" shape-rendering="crispEdges"/><rect fill="#191919" x="268.4" y="269.9" width="12.2" height="24.65" shape-rendering="crispEdges"/><rect fill="#1e1e1e" x="280.6" y="269.9" width="1024.8" height="24.65" shape-rendering="crispEdges"/><rect fill="#121212" x="1305.4" y="269.9" width="12.2" height="24.65" shape-rendering="crispEdges"/><rect fill="#121212" x="1317.6" y="269.9" width="24.4" height="24.65" shape-rendering="crispEdges"/><rect fill="#121212" x="0" y="294.3" width="24.4" height="24.65" shape-rendering="crispEdges"/><rect fill="#121212" x="24.4" y="294.3" width="1293.2" height="24.65" shape-rendering="crispEdges"/><rect fill="#121212" x="1317.6" y="294.3" width="24.4" height="24.65" shape-rendering="crispEdges"/><rect fill="#121212" x="0" y="318.7" width="24.4" height="24.65" shape-rendering="crispEdges"/><rect fill="#121212" x="24.4" y="318.7" width="122" height="24.65" shape-rendering="crispEdges"/><rect fill="#121212" x="146.4" y="318.7" width="122" height="24.65" shape-rendering="crispEdges"/><rect fill="#191919" x="268.4" y="318.7" width="12.2" height="24.65" shape-rendering="crispEdges"/><rect fill="#1e1e1e" x="280.6" y="318.7" width="1024.8" height="24.65" shape-rendering="crispEdges"/><rect fill="#121212" x="1305.4" y="318.7" width="12.2" height="24.65" shape-rendering="crispEdges"/><rect fill="#121212" x="1317.6" y="318.7" width="24.4" height="24.65" shape-rendering="crispEdges"/><rect fill="#121212" x="0" y="343.1" width="24.4" height="24.65" shape-rendering="crispEdges"/><rect fill="#121212" x="24.4" y="343.1" width="122" height="24.65" shape-rendering="crispEdges"/><rect fill="#121212" x="146.4" y="343.1" width="122" height="24.65" shape-rendering="crispEdges"/><rect fill="#191919" x="268.4" y="343.1" width="12.2" height="24.65" shape-rendering="crispEdges"/><rect fill="#1e1e1e" x="280.6" y="343.1" width="24.4" height="24.65" shape-rendering="crispEdges"/><rect fill="#1e1e1e" x="305" y="343.1" width="36.6" height="24.65" shape-rendering="crispEdges"/><rect fill="#1e1e1e" x="341.6" y="343.1" width="939.4" height="24.65" shape-rendering="crispEdges"/><rect fill="#1e1e1e" x="1281" y="343.1" width="24.4" height="24.65" shape-rendering="crispEdges"/><rect fill="#121212" x="1305.4" y="343.1" width="12.2" height="24.65" shape-rendering="crispEdges"/><rect fill="#121212" x="1317.6" y="343.1" width="24.4" height="24.65" shape-rendering="crispEdges"/><rect fill="#121212" x="0" y="367.5" width="24.4" height="24.65" shape-rendering="crispEdges"/><rect fill="#121212" x="24.4" y="367.5" width="122" height="24.65" shape-rendering="crispEdges"/><rect fill="#121212" x="146.4" y="367.5" width="122" height="24.65" shape-rendering="crispEdges"/><rect fill="#191919" x="268.4" y="367.5" width="12.2" height="24.65" shape-rendering="crispEdges"/><rect fill="#1e1e1e" x="280.6" y="367.5" width="1024.8" height="24.65" shape-rendering="crispEdges"/><rect fill="#121212" x="1305.4" y="367.5" width="12.2" height="24.65" shape-rendering="crispEdges"/><rect fill="#121212" x="1317.6" y="367.5" width="24.4" height="24.65" shape-rendering="crispEdges"/><rect fill="#121212" x="0" y="391.9" width="24.4" height="24.65" shape-rendering="crispEdges"/><rect fill="#121212" x="24.4" y="391.9" width="1293.2" height="24.65" shape-rendering="crispEdges"/><rect fill="#121212" x="1317.6" y="391.9" width="24.4" height="24.65" shape-rendering="crispEdges"/><rect fill="#121212" x="0" y="416.3" width="24.4" height="24.65" shape-rendering="crispEdges"/><rect fill="#121212" x="24.4" y="416.3" width="97.6" height="24.65" shape-rendering="crispEdges"/><rect fill="#121212" x="122" y="416.3" width="122" height="24.65" shape-rendering="crispEdges"/><rect fill="#121212" x="244" y="416.3" width="24.4" height="24.65" shape-rendering="crispEdges"/><rect fill="#191919" x="268.4" y="416.3" width="12.2" height="24.65" shape-rendering="crispEdges"/><rect fill="#1e1e1e" x="280.6" y="416.3" width="1024.8" height="24.65" shape-rendering="crispEdges"/><rect fill="#121212" x="1305.4" y="416.3" width="12.2" height="24.65" shape-rendering="crispEdges"/><rect fill="#121212" x="1317.6" y="416.3" width="24.4" height="24.65" shape-rendering="crispEdges"/><rect fill="#121212" x="0" y="440.7" width="24.4" height="24.65" shape-rendering="crispEdges"/><rect fill="#121212" x="24.4" y="440.7" width="122" height="24.65" shape-rendering="crispEdges"/><rect fill="#121212" x="146.4" y="440.7" width="97.6" height="24.65" shape-rendering="crispEdges"/><rect fill="#121212" x="244" y="440.7" width="24.4" height="24.65" shape-rendering="crispEdges"/><rect fill="#191919" x="268.4" y="440.7" width="12.2" height="24.65" shape-rendering="crispEdges"/><rect fill="#1e1e1e" x="280.6" y="440.7" width="24.4" height="24.65" shape-rendering="crispEdges"/><rect fill="#1e1e1e" x="305" y="440.7" width="97.6" height="24.65" shape-rendering="crispEdges"/><rect fill="#1e1e1e" x="402.6" y="440.7" width="878.4" height="24.65" shape-rendering="crispEdges"/><rect fill="#1e1e1e" x="1281" y="440.7" width="24.4" height="24.65" shape-rendering="crispEdges"/><rect fill="#121212" x="1305.4" y="440.7" width="12.2" height="24.65" shape-rendering="crispEdges"/><rect fill="#121212" x="1317.6" y="440.7" width="24.4" height="24.65" shape-rendering="crispEdges"/><rect fill="#121212" x="0" y="465.1" width="24.4" height="24.65" shape-rendering="crispEdges"/><rect fill="#121212" x="24.4" y="465.1" width="219.6" height="24.65" shape-rendering="crispEdges"/><rect fill="#121212" x="244" y="465.1" width="24.4" height="24.65" shape-rendering="crispEdges"/><rect fill="#191919" x="268.4" y="465.1" width="12.2" height="24.65" shape-rendering="crispEdges"/><rect fill="#1e1e1e" x="280.6" y="465.1" width="1024.8" height="24.65" shape-rendering="crispEdges"/><rect fill="#121212" x="1305.4" y="465.1" width="12.2" height="24.65" shape-rendering="crispEdges"/><rect fill="#121212" x="1317.6" y="465.1" width="24.4" height="24.65" shape-rendering="crispEdges"/><rect fill="#121212" x="0" y="489.5" width="24.4" height="24.65" shape-rendering="crispEdges"/><rect fill="#121212" x="24.4" y="489.5" width="1293.2" height="24.65" shape-rendering="crispEdges"/><rect fill="#121212" x="1317.6" y="489.5" width="24.4" height="24.65" shape-rendering="crispEdges"/><rect fill="#121212" x="0" y="513.9" width="24.4" height="24.65" shape-rendering="crispEdges"/><rect fill="#121212" x="24.4" y="513.9" width="146.4" height="24.65" shape-rendering="crispEdges"/><rect fill="#121212" x="170.8" y="513.9" width="97.6" height="24.65" shape-rendering="crispEdges"/><rect fill="#191919" x="268.4" y="513.9" width="12.2" height="24.65" shape-rendering="crispEdges"/><rect fill="#1e1e1e" x="280.6" y="513.9" width="1024.8" height="24.65" shape-rendering="crispEdges"/><rect fill="#121212" x="1305.4" y="513.9" width="12.2" height="24.65" shape-rendering="crispEdges"/><rect fill="#121212" x="1317.6" y="513.9" width="24.4" height="24.65" shape-rendering="crispEdges"/><rect fill="#121212" x="0" y="538.3" width="24.4" height="24.65" shape-rendering="crispEdges"/><rect fill="#121212" x="24.4" y="538.3" width="146.4" height="24.65" shape-rendering="crispEdges"/><rect fill="#121212" x="170.8" y="538.3" width="97.6" height="24.65" shape-rendering="crispEdges"/><rect fill="#191919" x="268.4" y="538.3" width="12.2" height="24.65" shape-rendering="crispEdges"/><rect fill="#1e1e1e" x="280.6" y="538.3" width="24.4" height="24.65" shape-rendering="crispEdges"/><rect fill="#1e1e1e" x="305" y="538.3" width="12.2" height="24.65" shape-rendering="crispEdges"/><rect fill="#1e1e1e" x="317.2" y="538.3" width="963.8" height="24.65" shape-rendering="crispEdges"/><rect fill="#1e1e1e" x="1281" y="538.3" width="24.4" height="24.65" shape-rendering="crispEdges"/><rect fill="#121212" x="1305.4" y="538.3" width="12.2" height="24.65" shape-rendering="crispEdges"/><rect fill="#121212" x="1317.6" y="538.3" width="24.4" height="24.65" shape-rendering="crispEdges"/><rect fill="#121212" x="0" y="562.7" width="24.4" height="24.65" shape-rendering="crispEdges"/><rect fill="#121212" x="24.4" y="562.7" width="146.4" height="24.65" shape-rendering="crispEdges"/><rect fill="#121212" x="170.8" y="562.7" width="97.6" height="24.65" shape-rendering="crispEdges"/><rect fill="#191919" x="268.4" y="562.7" width="12.2" height="24.65" shape-rendering="crispEdges"/><rect fill="#1e1e1e" x="280.6" y="562.7" width="1024.8" height="24.65" shape-rendering="crispEdges"/><rect fill="#121212" x="1305.4" y="562.7" width="12.2" height="24.65" shape-rendering="crispEdges"/><rect fill="#121212" x="1317.6" y="562.7" width="24.4" height="24.65" shape-rendering="crispEdges"/><rect fill="#121212" x="0" y="587.1" width="24.4" height="24.65" shape-rendering="crispEdges"/><rect fill="#121212" x="24.4" y="587.1" width="1293.2" height="24.65" shape-rendering="crispEdges"/><rect fill="#121212" x="1317.6" y="587.1" width="24.4" height="24.65" shape-rendering="crispEdges"/><rect fill="#121212" x="0" y="611.5" width="24.4" height="24.65" shape-rendering="crispEdges"/><rect fill="#121212" x="24.4" y="611.5" width="170.8" height="24.65" shape-rendering="crispEdges"/><rect fill="#121212" x="195.2" y="611.5" width="73.2" height="24.65" shape-rendering="crispEdges"/><rect fill="#191919" x="268.4" y="611.5" width="12.2" height="24.65" shape-rendering="crispEdges"/><rect fill="#1e1e1e" x="280.6" y="611.5" width="97.6" height="24.65" shape-rendering="crispEdges"/><rect fill="#121212" x="378.2" y="611.5" width="12.2" height="24.65" shape-rendering="crispEdges"/><rect fill="#121212" x="390.4" y="611.5" width="927.2" height="24.65" shape-rendering="crispEdges"/><rect fill="#121212" x="1317.6" y="611.5" width="24.4" height="24.65" shape-rendering="crispEdges"/><rect fill="#121212" x="0" y="635.9" width="24.4" height="24.65" shape-rendering="crispEdges"/><rect fill="#121212" x="24.4" y="635.9" width="170.8" height="24.65" shape-rendering="crispEdges"/><rect fill="#121212" x="195.2" y="635.9" width="73.2" height="24.65" shape-rendering="crispEdges"/><rect fill="#191919" x="268.4" y="635.9" width="12.2" height="24.65" shape-rendering="crispEdges"/><rect fill="#1e1e1e" x="280.6" y="635.9" width="24.4" height="24.65" shape-rendering="crispEdges"/><rect fill="#000f18" x="305" y="635.9" width="12.2" height="24.65" shape-rendering="crispEdges"/><rect fill="#000f18" x="317.2" y="635.9" width="12.2" height="24.65" shape-rendering="crispEdges"/><rect fill="#4ebf71" x="329.4" y="635.9" width="12.2" height="24.65" shape-rendering="crispEdges"/><rect fill="#4ebf71" x="341.6" y="635.9" width="12.2" height="24.65" shape-rendering="crispEdges"/><rect fill="#1e1e1e" x="353.8" y="635.9" width="24.4" height="24.65" shape-rendering="crispEdges"/><rect fill="#121212" x="378.2" y="635.9" width="12.2" height="24.65" shape-rendering="crispEdges"/><rect fill="#121212" x="390.4" y="635.9" width="927.2" height="24.65" shape-rendering="crispEdges"/><rect fill="#121212" x="1317.6" y="635.9" width="24.4" height="24.65" shape-rendering="crispEdges"/><rect fill="#121212" x="0" y="660.3" width="24.4" height="24.65" shape-rendering="crispEdges"/><rect fill="#121212" x="24.4" y="660.3" width="170.8" height="24.65" shape-rendering="crispEdges"/><rect fill="#121212" x="195.2" y="660.3" width="73.2" height="24.65" shape-rendering="crispEdges"/><rect fill="#191919" x="268.4" y="660.3" width="12.2" height="24.65" shape-rendering="crispEdges"/><rect fill="#1e1e1e" x="280.6" y="660.3" width="97.6" height="24.65" shape-rendering="crispEdges"/><rect fill="#121212" x="378.2" y="660.3" width="12.2" height="24.65" shape-rendering="crispEdges"/><rect fill="#121212" x="390.4" y="660.3" width="927.2" height="24.65" shape-rendering="crispEdges"/><rect fill="#121212" x="1317.6" y="660.3" width="24.4" height="24.65" shape-rendering="crispEdges"/><rect fill="#121212" x="0" y="684.7" width="1342" height="24.65" shape-rendering="crispEdges"/><rect fill="#121212" x="0" y="709.1" width="1342" height="24.65" shape-rendering="crispEdges"/><rect fill="#121212" x="0" y="733.5" width="1342" height="24.65" shape-rendering="crispEdges"/><rect fill="#121212" x="0" y="757.9" width="1342" height="24.65" shape-rendering="crispEdges"/><rect fill="#121212" x="0" y="782.3" width="1342" height="24.65" shape-rendering="crispEdges"/><rect fill="#242f38" x="0" y="806.7" width="48.8" height="24.65" shape-rendering="crispEdges"/><rect fill="#242f38" x="48.8" y="806.7" width="61" height="24.65" shape-rendering="crispEdges"/><rect fill="#242f38" x="109.8" y="806.7" width="48.8" height="24.65" shape-rendering="crispEdges"/><rect fill="#242f38" x="158.6" y="806.7" width="61" height="24.65" shape-rendering="crispEdges"/><rect fill="#242f38" x="219.6" y="806.7" width="48.8" height="24.65" shape-rendering="crispEdges"/><rect fill="#242f38" x="268.4" y="806.7" width="61" height="24.65" shape-rendering="crispEdges"/><rect fill="#242f38" x="329.4" y="806.7" width="48.8" height="24.65" shape-rendering="crispEdges"/><rect fill="#242f38" x="378.2" y="806.7" width="73.2" height="24.65" shape-rendering="crispEdges"/><rect fill="#242f38" x="451.4" y="806.7" width="48.8" height="24.65" shape-rendering="crispEdges"/><rect fill="#242f38" x="500.2" y="806.7" width="61" height="24.65" shape-rendering="crispEdges"/><rect fill="#242f38" x="561.2" y="806.7" width="48.8" height="24.65" shape-rendering="crispEdges"/><rect fill="#242f38" x="610" y="806.7" width="109.8" height="24.65" shape-rendering="crispEdges"/><rect fill="#242f38" x="719.8" y="806.7" width="475.8" height="24.65" shape-rendering="crispEdges"/><rect fill="#242f38" x="1195.6" y="806.7" width="12.2" height="24.65" shape-rendering="crispEdges"/><rect fill="#242f38" x="1207.8" y="806.7" width="24.4" height="24.65" shape-rendering="crispEdges"/><rect fill="#242f38" x="1232.2" y="806.7" width="97.6" height="24.65" shape-rendering="crispEdges"/><rect fill="#242f38" x="1329.8" y="806.7" width="12.2" height="24.65" shape-rendering="crispEdges"/>
    <g class="terminal-3023211497-matrix">
    <text class="terminal-3023211497-r2" x="12.2" y="20" textLength="12.2" clip-path="url(#terminal-3023211497-line-0)">⭘</text><text class="terminal-3023211497-r2" x="195.2" y="20" textLength="195.2" clip-path="url(#terminal-3023211497-line-0)">IRCTC&#160;Tatkal&#160;TUI</text><text class="terminal-3023211497-r3" x="390.4" y="20" textLength="36.6" clip-path="url(#terminal-3023211497-line-0)">&#160;—&#160;</text><text class="terminal-3023211497-r3" x="427" y="20" textLength="683.2" clip-path="url(#terminal-3023211497-line-0)">fill&#160;forms&#160;·&#160;poll&#160;availability&#160;·&#160;you&#160;solve&#160;CAPTCHA&#160;&amp;&#160;pay</text><text class="terminal-3023211497-r4" x="1232.2" y="20" textLength="97.6" clip-path="url(#terminal-3023211497-line-0)">00:46:37</text><text class="terminal-3023211497-r1" x="1342" y="20" textLength="12.2" clip-path="url(#terminal-3023211497-line-0)">
</text><text class="terminal-3023211497-r5" x="12.2" y="44.4" textLength="85.4" clip-path="url(#terminal-3023211497-line-1)">Journey</text><text class="terminal-3023211497-r5" x="122" y="44.4" textLength="122" clip-path="url(#terminal-3023211497-line-1)">Passengers</text><text class="terminal-3023211497-r5" x="268.4" y="44.4" textLength="85.4" clip-path="url(#terminal-3023211497-line-1)">Account</text><text class="terminal-3023211497-r6" x="378.2" y="44.4" textLength="73.2" clip-path="url(#terminal-3023211497-line-1)">Timing</text><text class="terminal-3023211497-r5" x="475.8" y="44.4" textLength="85.4" clip-path="url(#terminal-3023211497-line-1)">Browser</text><text class="terminal-3023211497-r5" x="585.6" y="44.4" textLength="36.6" clip-path="url(#terminal-3023211497-line-1)">Run</text><text class="terminal-3023211497-r1" x="1342" y="44.4" textLength="12.2" clip-path="url(#terminal-3023211497-line-1)">
</text><text class="terminal-3023211497-r7" x="0" y="68.8" textLength="366" clip-path="url(#terminal-3023211497-line-2)">━━━━━━━━━━━━━━━━━━━━━━━━━━━━━━</text><text class="terminal-3023211497-r7" x="366" y="68.8" textLength="12.2" clip-path="url(#terminal-3023211497-line-2)">╸</text><text class="terminal-3023211497-r8" x="378.2" y="68.8" textLength="73.2" clip-path="url(#terminal-3023211497-line-2)">━━━━━━</text><text class="terminal-3023211497-r7" x="451.4" y="68.8" textLength="12.2" clip-path="url(#terminal-3023211497-line-2)">╺</text><text class="terminal-3023211497-r7" x="463.6" y="68.8" textLength="878.4" clip-path="url(#terminal-3023211497-line-2)">━━━━━━━━━━━━━━━━━━━━━━━━━━━━━━━━━━━━━━━━━━━━━━━━━━━━━━━━━━━━━━━━━━━━━━━━</text><text class="terminal-3023211497-r1" x="1342" y="68.8" textLength="12.2" clip-path="url(#terminal-3023211497-line-2)">
</text><text class="terminal-3023211497-r1" x="1342" y="93.2" textLength="12.2" clip-path="url(#terminal-3023211497-line-3)">
</text><text class="terminal-3023211497-r9" x="24.4" y="117.6" textLength="195.2" clip-path="url(#terminal-3023211497-line-4)">Timing&#160;&amp;&#160;polling</text><text class="terminal-3023211497-r1" x="1342" y="117.6" textLength="12.2" clip-path="url(#terminal-3023211497-line-4)">
</text><text class="terminal-3023211497-r10" x="24.4" y="142" textLength="1268.8" clip-path="url(#terminal-3023211497-line-5)">Tatkal&#160;opens&#160;10:00&#160;(AC)&#160;/&#160;11:00&#160;(non-AC)&#160;one&#160;day&#160;before&#160;travel.&#160;Set&#160;a&#160;start&#160;time&#160;to&#160;arm&#160;the&#160;tool&#160;and&#160;let</text><text class="terminal-3023211497-r1" x="1342" y="142" textLength="12.2" clip-path="url(#terminal-3023211497-line-5)">
</text><text class="terminal-3023211497-r10" x="24.4" y="166.4" textLength="231.8" clip-path="url(#terminal-3023211497-line-6)">it&#160;fire&#160;on&#160;the&#160;dot.</text><text class="terminal-3023211497-r1" x="1342" y="166.4" textLength="12.2" clip-path="url(#terminal-3023211497-line-6)">
</text><text class="terminal-3023211497-r1" x="1342" y="190.8" textLength="12.2" clip-path="url(#terminal-3023211497-line-7)">
</text><text class="terminal-3023211497-r1" x="1342" y="215.2" textLength="12.2" clip-path="url(#terminal-3023211497-line-8)">
</text><text class="terminal-3023211497-r12" x="268.4" y="239.6" textLength="12.2" clip-path="url(#terminal-3023211497-line-9)">▊</text><text class="terminal-3023211497-r13" x="280.6" y="239.6" textLength="1024.8" clip-path="url(#terminal-3023211497-line-9)">▔▔▔▔▔▔▔▔▔▔▔▔▔▔▔▔▔▔▔▔▔▔▔▔▔▔▔▔▔▔▔▔▔▔▔▔▔▔▔▔▔▔▔▔▔▔▔▔▔▔▔▔▔▔▔▔▔▔▔▔▔▔▔▔▔▔▔▔▔▔▔▔▔▔▔▔▔▔▔▔▔▔▔▔</text><text class="terminal-3023211497-r13" x="1305.4" y="239.6" textLength="12.2" clip-path="url(#terminal-3023211497-line-9)">▎</text><text class="terminal-3023211497-r1" x="1342" y="239.6" textLength="12.2" clip-path="url(#terminal-3023211497-line-9)">
</text><text class="terminal-3023211497-r11" x="24.4" y="264" textLength="219.6" clip-path="url(#terminal-3023211497-line-10)">Check&#160;interval&#160;(s)</text><text class="terminal-3023211497-r12" x="268.4" y="264" textLength="12.2" clip-path="url(#terminal-3023211497-line-10)">▊</text><text class="terminal-3023211497-r2" x="305" y="264" textLength="48.8" clip-path="url(#terminal-3023211497-line-10)">15.0</text><text class="terminal-3023211497-r13" x="1305.4" y="264" textLength="12.2" clip-path="url(#terminal-3023211497-line-10)">▎</text><text class="terminal-3023211497-r1" x="1342" y="264" textLength="12.2" clip-path="url(#terminal-3023211497-line-10)">
</text><text class="terminal-3023211497-r12" x="268.4" y="288.4" textLength="12.2" clip-path="url(#terminal-3023211497-line-11)">▊</text><text class="terminal-3023211497-r13" x="280.6" y="288.4" textLength="1024.8" clip-path="url(#terminal-3023211497-line-11)">▁▁▁▁▁▁▁▁▁▁▁▁▁▁▁▁▁▁▁▁▁▁▁▁▁▁▁▁▁▁▁▁▁▁▁▁▁▁▁▁▁▁▁▁▁▁▁▁▁▁▁▁▁▁▁▁▁▁▁▁▁▁▁▁▁▁▁▁▁▁▁▁▁▁▁▁▁▁▁▁▁▁▁▁</text><text class="terminal-3023211497-r13" x="1305.4" y="288.4" textLength="12.2" clip-path="url(#terminal-3023211497-line-11)">▎</text><text class="terminal-3023211497-r1" x="1342" y="288.4" textLength="12.2" clip-path="url(#terminal-3023211497-line-11)">
</text><text class="terminal-3023211497-r1" x="1342" y="312.8" textLength="12.2" clip-path="url(#terminal-3023211497-line-12)">
</text><text class="terminal-3023211497-r12" x="268.4" y="337.2" textLength="12.2" clip-path="url(#terminal-3023211497-line-13)">▊</text><text class="terminal-3023211497-r13" x="280.6" y="337.2" textLength="1024.8" clip-path="url(#terminal-3023211497-line-13)">▔▔▔▔▔▔▔▔▔▔▔▔▔▔▔▔▔▔▔▔▔▔▔▔▔▔▔▔▔▔▔▔▔▔▔▔▔▔▔▔▔▔▔▔▔▔▔▔▔▔▔▔▔▔▔▔▔▔▔▔▔▔▔▔▔▔▔▔▔▔▔▔▔▔▔▔▔▔▔▔▔▔▔▔</text><text class="terminal-3023211497-r13" x="1305.4" y="337.2" textLength="12.2" clip-path="url(#terminal-3023211497-line-13)">▎</text><text class="terminal-3023211497-r1" x="1342" y="337.2" textLength="12.2" clip-path="url(#terminal-3023211497-line-13)">
</text><text class="terminal-3023211497-r11" x="24.4" y="361.6" textLength="122" clip-path="url(#terminal-3023211497-line-14)">Jitter&#160;(s)</text><text class="terminal-3023211497-r12" x="268.4" y="361.6" textLength="12.2" clip-path="url(#terminal-3023211497-line-14)">▊</text><text class="terminal-3023211497-r2" x="305" y="361.6" textLength="36.6" clip-path="url(#terminal-3023211497-line-14)">3.0</text><text class="terminal-3023211497-r13" x="1305.4" y="361.6" textLength="12.2" clip-path="url(#terminal-3023211497-line-14)">▎</text><text class="terminal-3023211497-r1" x="1342" y="361.6" textLength="12.2" clip-path="url(#terminal-3023211497-line-14)">
</text><text class="terminal-3023211497-r12" x="268.4" y="386" textLength="12.2" clip-path="url(#terminal-3023211497-line-15)">▊</text><text class="terminal-3023211497-r13" x="280.6" y="386" textLength="1024.8" clip-path="url(#terminal-3023211497-line-15)">▁▁▁▁▁▁▁▁▁▁▁▁▁▁▁▁▁▁▁▁▁▁▁▁▁▁▁▁▁▁▁▁▁▁▁▁▁▁▁▁▁▁▁▁▁▁▁▁▁▁▁▁▁▁▁▁▁▁▁▁▁▁▁▁▁▁▁▁▁▁▁▁▁▁▁▁▁▁▁▁▁▁▁▁</text><text class="terminal-3023211497-r13" x="1305.4" y="386" textLength="12.2" clip-path="url(#terminal-3023211497-line-15)">▎</text><text class="terminal-3023211497-r1" x="1342" y="386" textLength="12.2" clip-path="url(#terminal-3023211497-line-15)">
</text><text class="terminal-3023211497-r1" x="1342" y="410.4" textLength="12.2" clip-path="url(#terminal-3023211497-line-16)">
</text><text class="terminal-3023211497-r11" x="24.4" y="434.8" textLength="97.6" clip-path="url(#terminal-3023211497-line-17)">Start&#160;at</text><text class="terminal-3023211497-r12" x="268.4" y="434.8" textLength="12.2" clip-path="url(#terminal-3023211497-line-17)">▊</text><text class="terminal-3023211497-r13" x="280.6" y="434.8" textLength="1024.8" clip-path="url(#terminal-3023211497-line-17)">▔▔▔▔▔▔▔▔▔▔▔▔▔▔▔▔▔▔▔▔▔▔▔▔▔▔▔▔▔▔▔▔▔▔▔▔▔▔▔▔▔▔▔▔▔▔▔▔▔▔▔▔▔▔▔▔▔▔▔▔▔▔▔▔▔▔▔▔▔▔▔▔▔▔▔▔▔▔▔▔▔▔▔▔</text><text class="terminal-3023211497-r13" x="1305.4" y="434.8" textLength="12.2" clip-path="url(#terminal-3023211497-line-17)">▎</text><text class="terminal-3023211497-r1" x="1342" y="434.8" textLength="12.2" clip-path="url(#terminal-3023211497-line-17)">
</text><text class="terminal-3023211497-r11" x="24.4" y="459.2" textLength="122" clip-path="url(#terminal-3023211497-line-18)">(HH:MM:SS)</text><text class="terminal-3023211497-r12" x="268.4" y="459.2" textLength="12.2" clip-path="url(#terminal-3023211497-line-18)">▊</text><text class="terminal-3023211497-r2" x="305" y="459.2" textLength="97.6" clip-path="url(#terminal-3023211497-line-18)">11:00:00</text><text class="terminal-3023211497-r13" x="1305.4" y="459.2" textLength="12.2" clip-path="url(#terminal-3023211497-line-18)">▎</text><text class="terminal-3023211497-r1" x="1342" y="459.2" textLength="12.2" clip-path="url(#terminal-3023211497-line-18)">
</text><text class="terminal-3023211497-r12" x="268.4" y="483.6" textLength="12.2" clip-path="url(#terminal-3023211497-line-19)">▊</text><text class="terminal-3023211497-r13" x="280.6" y="483.6" textLength="1024.8" clip-path="url(#terminal-3023211497-line-19)">▁▁▁▁▁▁▁▁▁▁▁▁▁▁▁▁▁▁▁▁▁▁▁▁▁▁▁▁▁▁▁▁▁▁▁▁▁▁▁▁▁▁▁▁▁▁▁▁▁▁▁▁▁▁▁▁▁▁▁▁▁▁▁▁▁▁▁▁▁▁▁▁▁▁▁▁▁▁▁▁▁▁▁▁</text><text class="terminal-3023211497-r13" x="1305.4" y="483.6" textLength="12.2" clip-path="url(#terminal-3023211497-line-19)">▎</text><text class="terminal-3023211497-r1" x="1342" y="483.6" textLength="12.2" clip-path="url(#terminal-3023211497-line-19)">
</text><text class="terminal-3023211497-r1" x="1342" y="508" textLength="12.2" clip-path="url(#terminal-3023211497-line-20)">
</text><text class="terminal-3023211497-r12" x="268.4" y="532.4" textLength="12.2" clip-path="url(#terminal-3023211497-line-21)">▊</text><text class="terminal-3023211497-r13" x="280.6" y="532.4" textLength="1024.8" clip-path="url(#terminal-3023211497-line-21)">▔▔▔▔▔▔▔▔▔▔▔▔▔▔▔▔▔▔▔▔▔▔▔▔▔▔▔▔▔▔▔▔▔▔▔▔▔▔▔▔▔▔▔▔▔▔▔▔▔▔▔▔▔▔▔▔▔▔▔▔▔▔▔▔▔▔▔▔▔▔▔▔▔▔▔▔▔▔▔▔▔▔▔▔</text><text class="terminal-3023211497-r13" x="1305.4" y="532.4" textLength="12.2" clip-path="url(#terminal-3023211497-line-21)">▎</text><text class="terminal-3023211497-r1" x="1342" y="532.4" textLength="12.2" clip-path="url(#terminal-3023211497-line-21)">
</text><text class="terminal-3023211497-r11" x="24.4" y="556.8" textLength="146.4" clip-path="url(#terminal-3023211497-line-22)">Max&#160;attempts</text><text class="terminal-3023211497-r12" x="268.4" y="556.8" textLength="12.2" clip-path="url(#terminal-3023211497-line-22)">▊</text><text class="terminal-3023211497-r2" x="305" y="556.8" textLength="12.2" clip-path="url(#terminal-3023211497-line-22)">0</text><text class="terminal-3023211497-r13" x="1305.4" y="556.8" textLength="12.2" clip-path="url(#terminal-3023211497-line-22)">▎</text><text class="terminal-3023211497-r1" x="1342" y="556.8" textLength="12.2" clip-path="url(#terminal-3023211497-line-22)">
</text><text class="terminal-3023211497-r12" x="268.4" y="581.2" textLength="12.2" clip-path="url(#terminal-3023211497-line-23)">▊</text><text class="terminal-3023211497-r13" x="280.6" y="581.2" textLength="1024.8" clip-path="url(#terminal-3023211497-line-23)">▁▁▁▁▁▁▁▁▁▁▁▁▁▁▁▁▁▁▁▁▁▁▁▁▁▁▁▁▁▁▁▁▁▁▁▁▁▁▁▁▁▁▁▁▁▁▁▁▁▁▁▁▁▁▁▁▁▁▁▁▁▁▁▁▁▁▁▁▁▁▁▁▁▁▁▁▁▁▁▁▁▁▁▁</text><text class="terminal-3023211497-r13" x="1305.4" y="581.2" textLength="12.2" clip-path="url(#terminal-3023211497-line-23)">▎</text><text class="terminal-3023211497-r1" x="1342" y="581.2" textLength="12.2" clip-path="url(#terminal-3023211497-line-23)">
</text><text class="terminal-3023211497-r1" x="1342" y="605.6" textLength="12.2" clip-path="url(#terminal-3023211497-line-24)">
</text><text class="terminal-3023211497-r12" x="268.4" y="630" textLength="12.2" clip-path="url(#terminal-3023211497-line-25)">▊</text><text class="terminal-3023211497-r13" x="280.6" y="630" textLength="97.6" clip-path="url(#terminal-3023211497-line-25)">▔▔▔▔▔▔▔▔</text><text class="terminal-3023211497-r13" x="378.2" y="630" textLength="12.2" clip-path="url(#terminal-3023211497-line-25)">▎</text><text class="terminal-3023211497-r1" x="1342" y="630" textLength="12.2" clip-path="url(#terminal-3023211497-line-25)">
</text><text class="terminal-3023211497-r11" x="24.4" y="654.4" textLength="170.8" clip-path="url(#terminal-3023211497-line-26)">Retry&#160;on&#160;error</text><text class="terminal-3023211497-r12" x="268.4" y="654.4" textLength="12.2" clip-path="url(#terminal-3023211497-line-26)">▊</text><text class="terminal-3023211497-r13" x="378.2" y="654.4" textLength="12.2" clip-path="url(#terminal-3023211497-line-26)">▎</text><text class="terminal-3023211497-r1" x="1342" y="654.4" textLength="12.2" clip-path="url(#terminal-3023211497-line-26)">
</text><text class="terminal-3023211497-r12" x="268.4" y="678.8" textLength="12.2" clip-path="url(#terminal-3023211497-line-27)">▊</text><text class="terminal-3023211497-r13" x="280.6" y="678.8" textLength="97.6" clip-path="url(#terminal-3023211497-line-27)">▁▁▁▁▁▁▁▁</text><text class="terminal-3023211497-r13" x="378.2" y="678.8" textLength="12.2" clip-path="url(#terminal-3023211497-line-27)">▎</text><text class="terminal-3023211497-r1" x="1342" y="678.8" textLength="12.2" clip-path="url(#terminal-3023211497-line-27)">
</text><text class="terminal-3023211497-r1" x="1342" y="703.2" textLength="12.2" clip-path="url(#terminal-3023211497-line-28)">
</text><text class="terminal-3023211497-r1" x="1342" y="727.6" textLength="12.2" clip-path="url(#terminal-3023211497-line-29)">
</text><text class="terminal-3023211497-r1" x="1342" y="752" textLength="12.2" clip-path="url(#terminal-3023211497-line-30)">
</text><text class="terminal-3023211497-r1" x="1342" y="776.4" textLength="12.2" clip-path="url(#terminal-3023211497-line-31)">
</text><text class="terminal-3023211497-r1" x="1342" y="800.8" textLength="12.2" clip-path="url(#terminal-3023211497-line-32)">
</text><text class="terminal-3023211497-r15" x="0" y="825.2" textLength="48.8" clip-path="url(#terminal-3023211497-line-33)">&#160;^q&#160;</text><text class="terminal-3023211497-r2" x="48.8" y="825.2" textLength="61" clip-path="url(#terminal-3023211497-line-33)">Quit&#160;</text><text class="terminal-3023211497-r15" x="109.8" y="825.2" textLength="48.8" clip-path="url(#terminal-3023211497-line-33)">&#160;^s&#160;</text><text class="terminal-3023211497-r2" x="158.6" y="825.2" textLength="61" clip-path="url(#terminal-3023211497-line-33)">Save&#160;</text><text class="terminal-3023211497-r15" x="219.6" y="825.2" textLength="48.8" clip-path="url(#terminal-3023211497-line-33)">&#160;^o&#160;</text><text class="terminal-3023211497-r2" x="268.4" y="825.2" textLength="61" clip-path="url(#terminal-3023211497-line-33)">Load&#160;</text><text class="terminal-3023211497-r15" x="329.4" y="825.2" textLength="48.8" clip-path="url(#terminal-3023211497-line-33)">&#160;^r&#160;</text><text class="terminal-3023211497-r2" x="378.2" y="825.2" textLength="73.2" clip-path="url(#terminal-3023211497-line-33)">Start&#160;</text><text class="terminal-3023211497-r15" x="451.4" y="825.2" textLength="48.8" clip-path="url(#terminal-3023211497-line-33)">&#160;^t&#160;</text><text class="terminal-3023211497-r2" x="500.2" y="825.2" textLength="61" clip-path="url(#terminal-3023211497-line-33)">Stop&#160;</text><text class="terminal-3023211497-r15" x="561.2" y="825.2" textLength="48.8" clip-path="url(#terminal-3023211497-line-33)">&#160;f5&#160;</text><text class="terminal-3023211497-r2" x="610" y="825.2" textLength="109.8" clip-path="url(#terminal-3023211497-line-33)">Validate&#160;</text><text class="terminal-3023211497-r16" x="1195.6" y="825.2" textLength="12.2" clip-path="url(#terminal-3023211497-line-33)">▏</text><text class="terminal-3023211497-r15" x="1207.8" y="825.2" textLength="24.4" clip-path="url(#terminal-3023211497-line-33)">^p</text><text class="terminal-3023211497-r2" x="1232.2" y="825.2" textLength="97.6" clip-path="url(#terminal-3023211497-line-33)">&#160;palette</text>
    </g>
    </g>
</svg>
